<?xml version="1.0" encoding="UTF-8"?><svg version="1.1" xmlns="http://www.w3.org/2000/svg" xmlns:xlink="http://www.w3.org/1999/xlink" viewBox="0 0 1500 1500" width="1500" height="1500" x="0px" y="0px">
              
              <!-- ITEM 0 -->
<g>
    <defs>
        
        <clipPath id="clip-path-id-viewbox-item-0">
            <rect x="0.0" y="0.0" width="800.0" height="600.0"/>
        </clipPath>
    </defs>
    <g transform="translate(47.0 44.0) rotate(0.0 705.0 529.0) scale(1.7625 1.7633333333333334)">
        <g clip-path="url(#clip-path-id-viewbox-item-0)" transform="translate(-0.0 -0.0)">

<path style="fill:#E0EBFE;" d="M24.072,489.185l4.449-12.138c1.603-0.079,3.183,0.096,4.715,0.611l-4.809,13.124  c-0.269,0.736,0.109,1.551,0.844,1.822c0.736,0.269,1.551-0.109,1.822-0.844l4.719-12.879c1.429,0.895,2.658,2.076,3.665,3.475  l-3.982,10.866c-0.269,0.736,0.109,1.551,0.844,1.822c0.736,0.27,1.551-0.109,1.822-0.844l3.128-8.535  c1.796,4.445,1.901,10.075-0.125,15.607c-0.048,0.13-0.096,0.257-0.146,0.384c1.042,0.601,2.058,1.25,3.034,1.967  c2.737,2.01,6.266,5.422,7.531,10.256l-1.373,0.359c-1.16-4.432-4.445-7.597-6.998-9.471c-0.88-0.646-1.799-1.238-2.746-1.789  c-2.125,4.708-5.525,8.37-9.33,10.393l2.972-8.11c0.269-0.736-0.109-1.551-0.844-1.822c-0.736-0.269-1.551,0.109-1.822,0.844  l-3.829,10.45c-1.671,0.413-3.366,0.505-5.023,0.23l4.45-12.143c0.269-0.736-0.109-1.551-0.844-1.822  c-0.736-0.269-1.551,0.109-1.822,0.844l-4.511,12.309c-1.455-0.644-2.751-1.607-3.916-2.791l4.073-11.114  c0.269-0.736-0.109-1.551-0.844-1.822c-0.736-0.269-1.551,0.109-1.822,0.844l-3.5,9.552c-1.131-1.607-2.119-3.414-3.002-5.284  l2.197-5.997c0.269-0.736-0.109-1.551-0.844-1.822c-0.736-0.269-1.551,0.109-1.822,0.844l-1.17,3.193  c-2.163-5.371-3.695-10.5-5.501-12.215c3.059-0.644,7.416-3.572,12.24-6.175l-1.515,4.134c-0.269,0.736,0.109,1.551,0.844,1.822  c0.736,0.27,1.551-0.109,1.822-0.844l2.553-6.966c1.869-0.85,3.774-1.563,5.673-2.004l-3.92,10.699  c-0.269,0.736,0.109,1.551,0.844,1.822C22.987,490.299,23.803,489.921,24.072,489.185z"/>
<path style="fill:#E0EBFE;" d="M709.257,258.094l-4.449-12.139c-1.603-0.079-3.183,0.096-4.715,0.611l4.809,13.124  c0.269,0.736-0.109,1.551-0.844,1.822c-0.736,0.269-1.551-0.109-1.822-0.844l-4.719-12.879c-1.429,0.895-2.658,2.076-3.665,3.475  l3.982,10.867c0.269,0.736-0.109,1.551-0.844,1.822c-0.736,0.269-1.551-0.109-1.822-0.844l-3.128-8.534  c-1.796,4.445-1.901,10.075,0.125,15.607c0.048,0.13,0.096,0.257,0.146,0.384c-1.042,0.601-2.058,1.25-3.034,1.967  c-2.737,2.01-6.266,5.422-7.531,10.256l1.373,0.359c1.16-4.432,4.445-7.597,6.998-9.471c0.88-0.646,1.799-1.238,2.746-1.789  c2.125,4.708,5.525,8.37,9.33,10.393l-2.972-8.11c-0.269-0.736,0.109-1.551,0.844-1.822c0.736-0.269,1.551,0.109,1.822,0.844  l3.829,10.45c1.671,0.413,3.366,0.505,5.023,0.23l-4.45-12.143c-0.269-0.736,0.109-1.551,0.844-1.822  c0.736-0.269,1.551,0.109,1.822,0.844l4.511,12.309c1.455-0.644,2.751-1.607,3.916-2.791l-4.073-11.114  c-0.269-0.736,0.109-1.551,0.844-1.822c0.736-0.269,1.551,0.109,1.822,0.844l3.5,9.552c1.131-1.607,2.119-3.414,3.002-5.284  l-2.197-5.997c-0.269-0.736,0.109-1.551,0.844-1.822c0.736-0.269,1.551,0.109,1.822,0.844l1.17,3.193  c2.163-5.371,3.695-10.5,5.501-12.215c-3.059-0.644-7.416-3.572-12.24-6.175l1.515,4.134c0.269,0.736-0.109,1.551-0.844,1.822  c-0.736,0.269-1.551-0.109-1.822-0.844l-2.553-6.966c-1.869-0.85-3.774-1.563-5.673-2.004l3.92,10.699  c0.269,0.736-0.109,1.551-0.844,1.822C710.342,259.207,709.526,258.83,709.257,258.094z"/>
<line style="fill:none;stroke:#BDD5FD;stroke-width:5;stroke-miterlimit:10;" x1="654.558" y1="359.609" x2="787.515" y2="544.087"/>
<line style="fill:none;stroke:#BDD5FD;stroke-width:5;stroke-miterlimit:10;" x1="618.31" y1="334.679" x2="769.234" y2="544.087"/>
<line style="fill:none;stroke:#BDD5FD;stroke-width:5;stroke-miterlimit:10;" x1="617.995" y1="359.609" x2="750.952" y2="544.087"/>
<rect x="351.72" y="516.944" style="fill:#BDD5FD;" width="75.156" height="30.467"/>
<path style="fill:#E6EFFE;" d="M736.768,453.821h-90.916v93.22h24.243v-49.756c0-11.669,9.547-21.216,21.216-21.216  c11.669,0,21.216,9.547,21.216,21.216v49.756h24.243V453.821z"/>
<path style="fill:#FFFFFF;" d="M691.311,476.071c-11.669,0-21.216,9.547-21.216,21.216v49.756h42.431v-49.756  C712.526,485.618,702.98,476.071,691.311,476.071z"/>
<rect x="81.176" y="437.167" style="fill:#FFFFFF;" width="79.774" height="110.245"/>
<g>
	<rect x="242.944" y="377.89" style="fill:#BDD5FD;" width="5.54" height="53.183"/>
</g>
<path style="fill:#D5E4FE;" d="M312.146,418.639h-23.288v23.878h6.209v-12.745c0-2.988,2.445-5.434,5.434-5.434  c2.989,0,5.434,2.445,5.434,5.434v12.745h6.209v-23.878H312.146z"/>
<path style="fill:#FFFFFF;" d="M300.502,424.338c-2.988,0-5.434,2.445-5.434,5.434v12.745h10.869v-12.743  C305.936,426.783,303.492,424.338,300.502,424.338z"/>
<polygon style="fill:#A1C3FC;" points="309.318,414.677 290.858,414.677 285.683,418.99 314.493,418.99 "/>
<path style="fill:#D5E4FE;" d="M320.464,449.073h-39.353v40.351h10.493v-21.537c0-5.05,4.133-9.183,9.183-9.183  c5.052,0,9.183,4.132,9.183,9.183v21.537h10.494v-40.351H320.464z"/>
<path style="fill:#FFFFFF;" d="M300.788,458.703c-5.05,0-9.183,4.132-9.183,9.183v21.537h18.367v-21.537  C309.971,462.836,305.839,458.703,300.788,458.703z"/>
<rect x="201.957" y="420.55" style="fill:#BDD5FD;" width="65.37" height="126.861"/>
<path style="fill:#F4F4F4;" d="M108.56,59.935c-0.024,0.617-0.047,1.234-0.047,1.857c0,25.642,20.788,46.43,46.43,46.43  s46.43-20.788,46.43-46.43c0-0.623-0.022-1.24-0.047-1.857H108.56z"/>
<path style="fill:#E7EFFE;" d="M157.231,59.935c-0.018,0.448-0.034,0.896-0.034,1.35c0,18.628,15.101,33.73,33.73,33.73  s33.73-15.101,33.73-33.73c0-0.452-0.017-0.901-0.034-1.35H157.231z"/>
<g>
	<path style="fill:#D3E3FE;" d="M639.773,12.674c-0.027,0.67-0.051,1.342-0.051,2.02c0,27.883,22.604,50.486,50.486,50.486   c27.884,0,50.487-22.604,50.487-50.486c0-0.677-0.024-1.348-0.051-2.02C740.644,12.674,639.773,12.674,639.773,12.674z"/>
	<path style="fill:#F6F9FF;" d="M692.697,12.674c-0.019,0.488-0.037,0.975-0.037,1.467c0,20.256,16.421,36.677,36.677,36.677   c20.256,0,36.677-16.421,36.677-36.677c0-0.492-0.018-0.98-0.038-1.467H692.697z"/>
	<path style="fill:#D3E3FE;" d="M732.904,12.674c-0.015,0.391-0.03,0.781-0.03,1.176c0,16.236,13.162,29.398,29.398,29.398   S791.67,30.086,791.67,13.85c0-0.394-0.014-0.786-0.03-1.176H732.904z"/>
</g>
<g>
	<path style="fill:#C8DCF8;" d="M215.773,326.93h-18.537c1.077-0.34,2.154-0.624,3.288-0.793h11.905   C213.561,326.363,214.638,326.647,215.773,326.93z M219.968,328.574h-26.926c-0.567,0.227-1.077,0.51-1.588,0.793h30.044   C221.045,329.084,220.478,328.801,219.968,328.574z M223.879,331.011h-35.09c-0.397,0.284-0.737,0.51-1.134,0.793h37.074   C224.445,331.522,224.162,331.238,223.879,331.011z M225.977,333.392h-40.306c-0.284,0.284-0.624,0.51-0.907,0.793h41.609   C226.259,333.96,226.146,333.676,225.977,333.392z M227.11,335.83h-43.934c-0.227,0.284-0.453,0.51-0.737,0.793h44.896   C227.28,336.34,227.167,336.114,227.11,335.83z M227.734,338.268h-46.597c-0.227,0.284-0.397,0.51-0.567,0.793h47.278   C227.791,338.778,227.734,338.495,227.734,338.268z M228.017,340.649h-48.525c-0.17,0.284-0.34,0.51-0.453,0.793h49.093   C228.074,341.215,228.074,340.932,228.017,340.649z M228.131,343.087h-49.999c-0.113,0.284-0.284,0.51-0.397,0.793h50.396   C228.131,343.596,228.131,343.369,228.131,343.087z M227.676,345.807c0.057-0.113,0.057-0.17,0.113-0.284h-50.736   c-0.113,0.284-0.227,0.51-0.284,0.793h50.565C227.45,346.147,227.563,345.978,227.676,345.807z M224.389,348.188   c0.17-0.113,0.34-0.17,0.51-0.227H176.26c-0.057,0.284-0.113,0.51-0.227,0.793h47.391   C223.709,348.528,224.049,348.358,224.389,348.188z M221.271,350.342h-45.577c-0.057,0.284-0.113,0.51-0.113,0.793h44.896   C220.705,350.853,220.987,350.569,221.271,350.342z M219.06,352.723h-43.763c0,0.284-0.057,0.51-0.057,0.793h43.253   C218.664,353.289,218.833,353.007,219.06,352.723z M217.53,355.161h-42.346c0,0.284,0,0.51,0,0.793h41.949   C217.247,355.727,217.416,355.445,217.53,355.161z M216.51,357.599h-41.212c0,0.284,0.057,0.51,0.113,0.793h40.872   C216.339,358.108,216.453,357.825,216.51,357.599z M215.886,359.979h-40.192c0.057,0.284,0.113,0.567,0.17,0.793h39.908   C215.829,360.546,215.886,360.262,215.886,359.979z M215.659,362.416h-39.284c0.113,0.284,0.17,0.567,0.284,0.793h39.002   C215.659,362.984,215.659,362.7,215.659,362.416z M177.848,365.648h38.094c-0.057-0.284-0.113-0.51-0.113-0.793h-38.378   C177.565,365.081,177.735,365.365,177.848,365.648z M179.436,368.029h37.13c-0.057-0.284-0.17-0.51-0.227-0.793h-37.47   C179.038,367.519,179.209,367.803,179.436,368.029z M181.59,370.466h35.373c0-0.284,0-0.51-0.057-0.793h-36.167   C181.079,369.957,181.363,370.24,181.59,370.466z M184.594,372.734c0.113,0.056,0.17,0.113,0.284,0.17h31.348   c0.17-0.227,0.34-0.51,0.453-0.793H183.63C183.97,372.28,184.254,372.564,184.594,372.734z M191.736,375.285h20.237   c0.793-0.171,1.53-0.453,2.267-0.793h-25.623C189.639,374.832,190.659,375.114,191.736,375.285z"/>
</g>
<circle style="fill:#A1C3FC;" cx="81.901" cy="142.401" r="5.616"/>
<circle style="fill:#A1C3FC;" cx="600.55" cy="34.252" r="5.616"/>
<path style="fill:none;" d="M288.685,394.416l0.016,0.016c0.002-0.008,0.006-0.014,0.008-0.022L288.685,394.416z"/>
<path style="fill:#C8DCFD;" d="M306.216,408.389c1.007-0.623,1.914-1.387,2.691-2.271l-0.073,0.019l-3.64-3.64l4.986-1.276  l1.009,1.009c0.338-0.956,0.561-1.965,0.644-3.015l-1.188,0.304l-3.64-3.64l4.352-1.115c-1.022-3.331-3.464-6.037-6.621-7.417  l1.096,1.096l-4.986,1.276l-3.149-3.149c-0.584,0.113-1.148,0.275-1.698,0.47l3.121,3.121l-4.986,1.276l-2.071-2.071  c-0.382,0.34-0.743,0.702-1.079,1.088l1.424,1.424l-2.937,0.752c-0.304,0.566-0.555,1.162-0.766,1.778l4.963-1.271l3.64,3.64  l-4.986,1.276l-3.623-3.623c-0.189,0.557-0.338,1.132-0.443,1.724l2.341,2.341l-2.493,0.638c0.038,0.52,0.098,1.033,0.199,1.531  l3.553-0.91l3.64,3.64l-4.986,1.276l-1.27-1.27c1.172,2.44,3.146,4.413,5.586,5.586l-3.056-3.056l4.986-1.276l3.64,3.64  l-4.486,1.149c1.09,0.396,2.252,0.635,3.464,0.696l2.283-0.584l0.418,0.418c0.592-0.105,1.167-0.254,1.724-0.443l-0.417-0.417  L306.216,408.389z M308.922,399.96l-4.986,1.276l-3.64-3.64l4.986-1.276L308.922,399.96z M307.096,389.703l3.64,3.64l-4.986,1.276  l-3.64-3.64L307.096,389.703z M295.396,392.698l4.986-1.276l3.64,3.64l-4.986,1.276L295.396,392.698z M293.583,399.316l4.986-1.276  l3.64,3.64l-4.986,1.276L293.583,399.316z M298.483,404.215l4.986-1.276l3.64,3.64l-4.986,1.276L298.483,404.215z"/>
<rect x="42.101" y="369.581" style="fill:#D5E4FE;" width="79.774" height="177.831"/>
<rect x="160.954" y="462.651" style="fill:#D5E4FE;" width="79.774" height="84.76"/>
<polygon style="fill:#428DFC;" points="206.828,436.837 127.054,436.837 160.954,463.016 240.728,463.016 "/>
<polygon style="fill:#428DFC;" points="394.446,499.993 314.672,499.993 348.571,517.122 428.346,517.122 "/>
<rect x="184.319" y="475.25" style="fill:#FFFFFF;" width="10.277" height="56.39"/>
<rect x="203.362" y="475.25" style="fill:#FFFFFF;" width="10.277" height="56.39"/>
<rect x="222.406" y="475.25" style="fill:#FFFFFF;" width="10.277" height="56.39"/>
<rect x="491.148" y="479.274" style="fill:#FFFFFF;" width="49.304" height="68.136"/>
<rect x="540.455" y="495.026" style="fill:#D5E4FE;" width="49.304" height="52.386"/>
<polygon style="fill:#428DFC;" points="568.807,479.072 519.503,479.072 540.455,495.821 589.759,495.821 "/>
<rect x="561.275" y="502.812" style="fill:#FFFFFF;" width="4.996" height="17.046"/>
<rect x="570.532" y="502.812" style="fill:#FFFFFF;" width="4.996" height="17.046"/>
<rect x="579.79" y="502.812" style="fill:#FFFFFF;" width="4.996" height="17.046"/>
<rect x="42.101" y="385.499" style="fill:#FFFFFF;" width="43.213" height="7.756"/>
<rect x="42.101" y="399.903" style="fill:#FFFFFF;" width="43.213" height="7.756"/>
<rect x="42.101" y="414.308" style="fill:#FFFFFF;" width="43.213" height="7.756"/>
<rect x="42.101" y="428.712" style="fill:#FFFFFF;" width="43.213" height="7.756"/>
<rect x="42.101" y="443.117" style="fill:#FFFFFF;" width="43.213" height="7.756"/>
<rect x="42.101" y="457.521" style="fill:#FFFFFF;" width="43.213" height="7.756"/>
<rect x="42.101" y="471.926" style="fill:#FFFFFF;" width="43.213" height="7.756"/>
<rect x="42.101" y="486.33" style="fill:#FFFFFF;" width="43.213" height="7.756"/>
<rect x="42.101" y="500.734" style="fill:#FFFFFF;" width="43.213" height="7.756"/>
<rect x="42.101" y="515.139" style="fill:#FFFFFF;" width="43.213" height="7.756"/>
<polygon style="fill:#D5E4FE;" points="57.613,375.527 87.53,535.084 111.907,535.084 111.907,376.635 "/>
<path style="fill:#D5E4FE;" d="M325.904,496.29h-49.858v51.121h13.294v-27.286c0-6.399,5.235-11.634,11.634-11.634  s11.634,5.236,11.634,11.634v27.286h13.295C325.904,547.411,325.904,496.29,325.904,496.29z"/>
<path style="fill:#FFFFFF;" d="M300.975,508.491c-6.399,0-11.634,5.236-11.634,11.634v27.286h23.269v-27.286  C312.61,513.726,307.374,508.491,300.975,508.491z"/>
<polygon style="fill:#E6EFFE;" points="735.474,454.665 647.147,454.665 627.923,438.506 754.699,438.506 "/>
<polygon style="fill:#D5E4FE;" points="240.728,465.051 160.954,547.411 240.728,547.411 "/>
<polygon style="fill:#D5E4FE;" points="324.939,499.585 278.406,547.411 324.939,547.411 "/>
<polygon style="fill:#D5E4FE;" points="319.03,455.264 286.87,488.316 319.03,488.316 "/>
<polygon style="fill:#D5E4FE;" points="311.642,421.284 290.983,442.517 311.642,442.517 "/>
<g>
	<rect x="298.241" y="348.195" style="fill:#BDD5FD;" width="3.324" height="36.935"/>
</g>
<polygon style="fill:none;" points="456.288,481.538 466.771,479.078 459.119,472.065 448.637,474.525 "/>
<path style="fill:#C8DCFD;" d="M432.684,523.103l-7.651-7.013l10.483-2.46l0.881,0.808v-4.177l-7.552-6.923l7.552-1.773v-3.049  l-10.202,2.394l-7.651-7.013l10.483-2.46l7.37,6.755v-4.176l-3.742-3.429l3.742-0.878v-3.049l-6.39,1.499l-7.651-7.013l10.483-2.46  l3.559,3.262v-7.146l-2.579,0.605l-7.651-7.013l10.23-2.401v-4.466l-6.42-5.884l6.42-1.507v-3.049l-9.067,2.127l-7.651-7.013  l10.482-2.46l6.236,5.715v-4.176l-2.608-2.391l2.608-0.612v-3.048l-5.257,1.233l-7.651-7.013l10.483-2.46l2.424,2.223v-5.84  l-1.446,0.339l-7.651-7.013l9.097-2.135v-5.74h-4.521l3.259,2.987l-10.483,2.46l-3.087-2.83l-2.278,2.089l1.737,1.592l-22.853,5.363  v3.049l13.711-3.218l-1.457,1.335l6.788,6.222l-10.482,2.46l-2.889-2.648l-2.278,2.089l1.539,1.411l-4.932,1.157v3.049l7.579-1.778  l7.651,7.013l-10.483,2.46l-4.748-4.352v4.176l1.12,1.027l-1.12,0.263v3.049l3.768-0.884l7.651,7.013l-10.483,2.46l-0.937-0.859  v4.177l7.609,6.974l-7.609,1.785v3.049l10.257-2.407l7.651,7.013l-10.483,2.46l-7.425-6.806v4.176l3.797,3.48l-3.797,0.891v3.049  l6.445-1.512l7.651,7.013l-10.483,2.46l-3.614-3.313v7.21l2.635-0.618l7.651,7.013l-10.286,2.413v4.402l6.475,5.935l-6.475,1.519  v3.049l9.124-2.141l7.651,7.013l-10.483,2.46l-6.291-5.767v4.176l2.664,2.442l-2.664,0.625v3.049l5.312-1.247l7.651,7.013  l-10.482,2.46l-2.481-2.274v5.905l1.501-0.352l1.845,1.691h4.556l-2.773-2.542l10.483-2.46l3.087,2.829l2.278-2.089l-1.737-1.592  l18.986-4.455v-3.049l-9.845,2.31l1.457-1.336l-6.788-6.222l10.483-2.46l2.889,2.647l1.804-1.653v-0.87l-1.065-0.975l1.065-0.249  v-3.049L432.684,523.103z M432.867,511.203l-10.483,2.46l-7.651-7.013l10.483-2.46L432.867,511.203z M434,463.509l-10.482,2.46  l-7.651-7.013l10.483-2.46L434,463.509z M413.189,424.013l10.483-2.46l7.651,7.013l-10.483,2.46L413.189,424.013z M409.379,436.764  l10.483-2.46l7.651,7.013l-10.483,2.46L409.379,436.764z M405.568,449.516l10.483-2.46l7.651,7.013l-10.483,2.46L405.568,449.516z   M401.756,462.267l10.483-2.46l7.651,7.013l-10.483,2.46L401.756,462.267z M412.056,471.707l10.483-2.46l7.651,7.013l-10.483,2.46  L412.056,471.707z M408.245,484.459l10.483-2.46l7.651,7.013l-10.483,2.46L408.245,484.459z M404.433,497.21l10.483-2.46  l7.652,7.013l-10.483,2.46L404.433,497.21z M400.623,509.962l10.483-2.46l7.651,7.013l-10.483,2.46L400.623,509.962z   M425.246,536.706l-10.483,2.46l-7.651-7.013l10.483-2.46L425.246,536.706z M418.574,526.414l-7.651-7.013l10.483-2.46l7.651,7.013  L418.574,526.414z"/>
<g>
	<rect x="597.25" y="402.82" style="fill:#D5E4FE;" width="64.863" height="144.591"/>
	<rect x="626.978" y="415.763" style="fill:#FFFFFF;" width="35.136" height="6.307"/>
	<rect x="626.978" y="427.475" style="fill:#FFFFFF;" width="35.136" height="6.307"/>
	<rect x="626.978" y="439.188" style="fill:#FFFFFF;" width="35.136" height="6.307"/>
	<rect x="626.978" y="450.9" style="fill:#FFFFFF;" width="35.136" height="6.307"/>
	<rect x="626.978" y="462.611" style="fill:#FFFFFF;" width="35.136" height="6.307"/>
	<rect x="626.978" y="474.323" style="fill:#FFFFFF;" width="35.136" height="6.307"/>
	<rect x="626.978" y="486.035" style="fill:#FFFFFF;" width="35.136" height="6.307"/>
	<rect x="626.978" y="497.747" style="fill:#FFFFFF;" width="35.136" height="6.307"/>
	<rect x="626.978" y="509.459" style="fill:#FFFFFF;" width="35.136" height="6.307"/>
	<rect x="626.978" y="521.171" style="fill:#FFFFFF;" width="35.136" height="6.307"/>
	<polygon style="fill:#D5E4FE;" points="649.501,407.655 625.176,537.388 605.356,537.388 605.356,408.556  "/>
</g>
<path style="fill:#89B3F4;" d="M518.458,508.195c-6.387,0-11.612,5.225-11.612,11.612v27.234h23.224v-27.234  C530.07,513.42,524.845,508.195,518.458,508.195z"/>
<g>
	<rect x="449.589" y="420.55" style="fill:#BDD5FD;" width="65.37" height="126.861"/>
	<circle style="fill:#FFFFFF;" cx="460.385" cy="436.336" r="8.587"/>
	<circle style="fill:#FFFFFF;" cx="483.011" cy="436.336" r="8.587"/>
	<circle style="fill:#FFFFFF;" cx="505.638" cy="436.336" r="8.587"/>
	<rect x="465.952" y="453.089" style="fill:#FFFFFF;" width="4.432" height="25.854"/>
	<rect x="475.554" y="453.089" style="fill:#FFFFFF;" width="4.432" height="25.854"/>
	<rect x="485.157" y="453.089" style="fill:#FFFFFF;" width="4.432" height="25.854"/>
	<rect x="494.76" y="453.089" style="fill:#FFFFFF;" width="4.432" height="25.854"/>
	<rect x="504.363" y="453.089" style="fill:#FFFFFF;" width="4.432" height="25.854"/>
	<rect x="454.871" y="504.059" style="fill:#FFFFFF;" width="4.432" height="25.854"/>
	<rect x="464.473" y="504.059" style="fill:#FFFFFF;" width="4.432" height="25.854"/>
	<rect x="474.077" y="504.059" style="fill:#FFFFFF;" width="4.432" height="25.854"/>
	<rect x="483.68" y="504.059" style="fill:#FFFFFF;" width="4.432" height="25.854"/>
	<rect x="493.282" y="504.059" style="fill:#FFFFFF;" width="4.432" height="25.854"/>
	<polygon style="fill:#BDD5FD;" points="514.96,449.359 449.589,502.351 514.96,502.351  "/>
	<polygon style="fill:#BDD5FD;" points="449.589,493.681 514.96,546.672 449.589,546.672  "/>
</g>
<polygon style="fill:#A1C3FC;" points="315.684,442.378 284.491,442.378 275.745,449.666 324.43,449.666 "/>
<polygon style="fill:#A1C3FC;" points="319.847,487.807 280.328,487.807 269.248,497.041 330.928,497.041 "/>

        </g>
    </g>
</g>

<!-- ITEM 1 -->
<g>
    <defs>
        
        <clipPath id="clip-path-id-viewbox-item-1">
            <rect x="0.0" y="0.0" width="300.0" height="488.0"/>
        </clipPath>
    </defs>
    <g transform="translate(932.0 562.0) rotate(0.0 248.5 404.0) scale(1.6566666666666667 1.6557377049180328)">
        <g clip-path="url(#clip-path-id-viewbox-item-1)" transform="translate(-0.0 -0.0)">

<path fill="#D62929" d="M151.412,58.222c-1.491,5.871,0.558,12.972-1.483,18.677c2.599-3.268,7.15-9.783,10.865-11.694  c-0.572-1.953-2.521-11.959-4.044-10.607C155.267,55.916,153.949,56.985,151.412,58.222z"/>
<path fill="#F2A19C" d="M105.285,80.688c-2.3,0.671-4.6,1.341-6.9,2.012c-0.198-0.393,0.123-0.939,0.563-0.959  c-1.043,2.222-2.085,4.444-3.128,6.667c-0.166,0.355-0.337,0.727-0.323,1.119c0.011,0.316,0.14,0.614,0.268,0.903  c1.11,2.515,2.22,5.03,3.33,7.544c0.51,1.155,1.037,2.336,1.923,3.236c0.863,0.877,2.414,1.381,3.265,0.493  c0.75-0.784,0.437-2.06,0.06-3.077c-1.04-2.807-2.203-5.57-3.487-8.275c0.832,1.365,1.664,2.729,2.496,4.094  c0.474,0.779,0.983,1.591,1.778,2.038c0.795,0.447,1.965,0.37,2.441-0.407c0.694-3.072-1.266-6.055-3.126-8.598  c1.313,0.565,1.947,2.017,2.689,3.238c0.742,1.222,2.055,2.431,3.425,2.021c0.73-2.147-0.375-4.478-1.715-6.307  C107.503,84.6,105.854,82.883,105.285,80.688z"/>
<linearGradient id="SVGID_1_-i1" gradientUnits="userSpaceOnUse" x1="115.1588" y1="388.6887" x2="174.5634" y2="388.6887" gradientTransform="matrix(1 0 0 -1 0 502)">
	<stop offset="0" style="stop-color:#FFBEB6"/>
	<stop offset="1" style="stop-color:#F2A19C"/>
</linearGradient>
<path fill="url(#SVGID_1_-i1)" d="M163.544,140.771c-1.266-0.055-2.589-0.126-3.682-0.765c-0.959-0.56-11.551-1.969-14.791-4.735  c-0.773-0.661-6.019-4.123-8.099-7.674c-2.871-4.903-13.899-34.843-21.814-36.083c0.689-1.627,6.081-4.387,6.77-6.014  c6.335,7.937,12.645,15.711,19.535,23.172c7.247,7.849,14.843,15.467,23.582,21.613c2.184,1.537,4.435,2.976,6.621,4.508  c1.01,0.708,2.044,1.478,2.585,2.586s0.405,2.644-0.621,3.327c-0.679,0.451-1.556,0.432-2.371,0.397  C168.688,140.994,166.116,140.882,163.544,140.771z"/>
<path fill="#D62929" d="M152.788,126.473c0.947,6.169,1.894,12.337,2.841,18.506c8.657-4.094,17.822-7.115,27.218-8.974  c-1.42-23.487-4.374-46.881-8.838-69.984c-0.434-2.249-0.92-4.579-2.289-6.417c-3.38-4.534-11.343-3.604-14.422,1.14  c-1.683,2.594-2.096,5.783-2.467,8.853c-0.884,7.309-1.766,14.616-2.65,21.925c-0.682,5.643-1.365,11.305-1.297,16.989  C150.956,114.537,151.873,120.517,152.788,126.473z"/>
<path fill="#151A4F" d="M174.834,163.597c3.473-3.166,0.094-14.913-2.675-18.71c-2.769-3.797-24.071-28.733-39.132-49.033  c-2.481,9.596-6.063,18.908-10.651,27.694c13.677,15.325,19.027,29.357,41.76,46.061  C167.733,172.253,171.537,166.603,174.834,163.597z"/>
<path fill="#F2A19C" d="M264.094,429.329c1.052,1.067,12.462,4.64,13.947,4.841c6.487,0.88,17.315-0.299,17.51-0.132  c0.189,0.161,4.821,25.024,3.775,35.699c-4.63,0.531-8.712,0.952-13.34,1.483c-1.789,0.205-3.651,0.403-5.351-0.191  C281.501,463.372,267.098,433.895,264.094,429.329z"/>
<path fill="#151A4F" d="M298.882,449.879c-16.851,2.255-23.712,0.907-40.521,3.447c-12.668-27.698-43.408-64.881-67.479-110.987  c-31.473-60.282-36.65-101.77-35.515-154.645c12.235,6.022,31.6,10.609,44.541,6.305c1.324,45.447,10.66,86.866,35.477,124.972  c6.579,10.103,13.966,19.863,18.258,31.129c3.934,10.325,5.154,21.65,10.195,31.482c4.947,9.648,13.194,17.132,19.626,25.861  C292.516,419.729,297.938,434.652,298.882,449.879z"/>
<path fill="#F2A19C" d="M154.673,61.063c-2.298-9.88-7.326-18.874-12.294-27.718c-0.478-0.852-0.958-1.704-1.436-2.556  c-0.157-0.281-0.32-0.579-0.313-0.902c0.012-0.515,0.44-0.909,0.828-1.248c3.039-2.656,2.434-7.761,4.273-11.352  c6.62,12.36,15.134,26.105,20.37,37.395C162.11,56.459,158.281,58.598,154.673,61.063z"/>
<linearGradient id="SVGID_2_-i1" gradientUnits="userSpaceOnUse" x1="108.5257" y1="475.5013" x2="147.3199" y2="475.5013" gradientTransform="matrix(1 0 0 -1 0 502)">
	<stop offset="0" style="stop-color:#FFBEB6"/>
	<stop offset="1" style="stop-color:#F2A19C"/>
</linearGradient>
<path fill="url(#SVGID_2_-i1)" d="M146.147,29.442c0.198-3.145,1.155-9.978-0.512-12.536c-2.627-4.031-7.417-8.553-13.883-11.594  c-7.917-3.724-13.432,1.669-18.85,8.535c-1.094,1.386-2.094,2.858-2.847,4.455c-2.932,6.222-1.55,14.212,3.304,19.089  c0.894,0.898,1.873,1.67,2.908,2.35c1.834,3.026,3.994,5.647,6.169,8.998c0.994,0.833,2.843-1.775,3.849-3.144  c0.504-0.687,0.979-1.256,1.439-1.772c2.181,0.381,4.393,0.642,6.556,0.868c4.748,0.494,9.081,5.309,12.207,1.704  C148.627,43.925,145.942,32.703,146.147,29.442z"/>
<linearGradient id="SVGID_3_-i1" gradientUnits="userSpaceOnUse" x1="-12.0862" y1="312.6728" x2="29.686" y2="312.6728" gradientTransform="matrix(0.9707 -0.2404 -0.2404 -0.9707 183.5036 328.1518)">
	<stop offset="0" style="stop-color:#23286B"/>
	<stop offset="1" style="stop-color:#151A4F"/>
</linearGradient>
<path fill="url(#SVGID_3_-i1)" d="M103.561,13.359c-2.971,7.869-2.592,17.509-1.952,19.829c2.724,9.873,2.331,10.525,0.203,15.381  c9.685-2.396,9.43-13.722,13.875-22.107c4.445-8.384,9.975-16.81,18.475-21.038c-5.6-3.051-10.308-6.171-16.827-5.265  C111.109,1.025,105.78,7.481,103.561,13.359z"/>
<g>
	<path fill="#23286B" d="M106.47,52.981c-0.15,0-0.3-0.067-0.399-0.196c-0.167-0.221-0.125-0.534,0.094-0.703   c5.712-4.361,7.715-11.714,9.652-18.824c0.715-2.627,1.455-5.343,2.373-7.882c2.85-7.887,8.045-15.096,14.626-20.296   c0.219-0.171,0.534-0.135,0.704,0.082c0.172,0.216,0.135,0.532-0.082,0.704c-6.437,5.088-11.517,12.138-14.305,19.851   c-0.904,2.501-1.638,5.197-2.349,7.805c-1.981,7.272-4.03,14.791-10.01,19.357C106.684,52.948,106.577,52.981,106.47,52.981z"/>
</g>
<path fill="#23286B" d="M137.792,30.614c0.818-1.179,1.656-2.552,1.349-3.954c-0.219-0.997-1.76-3.029-2.349-3.863  c-1.503-2.13-2.538-3.324-6.18-6.937c6.371,2.76,10.206,6.626,15.5,11.117c2.395,9.288,5.04,25.182,1.859,25.757  c-5.928,1.017-9.533-7.97-15.548-7.96C131.454,39.672,134.831,34.884,137.792,30.614z"/>
<path fill="#F2A19C" d="M135.403,44.919c-0.198-0.46-0.109-0.987-0.001-1.476c0.569-2.56,1.593-5.018,3.011-7.225  c1.545,1.08,1.495,1.229,3.228,1.974c-0.951,4.941-1.505,7.007-1.796,10.471c-1.198-0.938-2.395-1.876-3.593-2.814  C135.918,45.586,135.571,45.309,135.403,44.919z"/>
<path fill="#FFBEB6" d="M64.008,105.798c-0.975-0.686-2.822,0.733-2.663,1.912c0.159,1.181,0.987,2.145,1.779,3.035  c5.883,6.611,11.768,13.222,17.651,19.833c0.569,0.638,1.149,1.288,1.89,1.717c0.861,0.499,1.874,0.663,2.865,0.751  c6.4,0.568,13.788-1.359,18.621,2.872c1.453,1.272,2.458,2.967,3.438,4.632c5.076,8.622,10.152,17.242,15.228,25.864  c1.823-4.21,3.176-8.622,4.028-13.129c0.395-2.094,0.676-4.298,0.016-6.323c-0.496-1.524-1.489-2.83-2.483-4.088  c-3.572-4.519-7.395-8.84-11.446-12.936c-1.097-1.11-2.24-2.223-3.65-2.893c-1.81-0.861-3.886-0.912-5.891-0.946  c-5.929-0.103-11.859-0.206-17.788-0.31c-0.976-0.017-1.975-0.038-2.885-0.388c-1.226-0.47-2.912-3.316-4.917-5.821  C73.21,113.846,70.778,110.559,64.008,105.798z"/>
<linearGradient id="SVGID_4_-i1" gradientUnits="userSpaceOnUse" x1="50.9655" y1="391.62" x2="117.2308" y2="391.62" gradientTransform="matrix(1.0203 -0.0451 0.0451 -1.1001 -20.1641 546.7431)">
	<stop offset="0" style="stop-color:#EEEEEE"/>
	<stop offset="0.5538" style="stop-color:#D6D7D8"/>
</linearGradient>
<polygon fill="url(#SVGID_4_-i1)" points="104.447,130.495 49.815,105.883 64.478,93.661 116.847,117.022 "/>
<polygon opacity="0.25" fill="#808080" enable-background="new    " points="96.213,123.07 56.515,104.679 65.706,97.543   103.777,114.851 "/>
<linearGradient id="SVGID_5_-i1" gradientUnits="userSpaceOnUse" x1="217.7934" y1="33.7418" x2="300" y2="33.7418" gradientTransform="matrix(1 0 0 -1 0 502)">
	<stop offset="0" style="stop-color:#E94A47"/>
	<stop offset="1" style="stop-color:#D62929"/>
</linearGradient>
<path fill="url(#SVGID_5_-i1)" d="M218.645,481.313c-4.84-2.096,11.924-17.296,25.494-20.962c7.499-2.027,10.305-4.479,18.072-4.677  c8.789-0.223,28.023-0.489,36.812-0.712c0.241,9.039,1.751,26.35,0.46,26.189C290.502,482.041,219.775,481.152,218.645,481.313z"/>
<path fill="#F2A19C" d="M81.937,428.308c0.391,1.446,0.508,7.942,1.703,8.848c5.214,3.956,0.271,6.295,5.485,10.251  c0.204,0.154,0.417,0.323,0.504,0.562c0.084,0.233,0.941,0.881,0.82,1.098c-5.86,10.522-12.15,19.333-15.417,28.075  c-4.292-1.813-8.583-3.627-12.875-5.44c-1.659-0.701-10.025-4.605-11.211-5.959C55.471,459.505,82.305,433.76,81.937,428.308z"/>
<linearGradient id="SVGID_6_-i1" gradientUnits="userSpaceOnUse" x1="83.3287" y1="453.5665" x2="165.5229" y2="453.5665" gradientTransform="matrix(0.8706 0.492 0.492 -0.8706 -289.6986 790.4405)">
	<stop offset="0" style="stop-color:#E94A47"/>
	<stop offset="1" style="stop-color:#D62929"/>
</linearGradient>
<path fill="url(#SVGID_6_-i1)" d="M0.31,448.367c-3.182-4.205,18.896-9.195,32.516-5.715c7.526,1.923,11.177,1.168,18.035,4.814  c7.762,4.127,24.638,13.353,32.399,17.48c-4.24,7.987-11.448,23.801-12.492,23.027C62.51,484.329,1.372,448.782,0.31,448.367z"/>
<path fill="#23286B" d="M125.38,394.85c-3.884,5.772-4.595,13.352-5.88,20.429c-3.259,17.945-14.872,32.301-33.928,46.333  c-13.63-10.684-20.47-15.375-34.1-26.06c39.556-42.093,68.538-100.859,85.642-158.733c8.114-27.454,21.639-54.473,19.892-83.529  c15.036,1.706,28.689,4.776,42.903-0.961c6.687,47.442-15.904,101.59-44.563,144.689c-2.486,3.74-5.1,7.48-6.541,11.852  c-1.463,4.439-1.629,9.263-2.491,13.895c-1.608,8.634-5.736,16.658-11.604,22.557C131.569,388.478,127.918,391.08,125.38,394.85z"/>
<linearGradient id="SVGID_7_-i1" gradientUnits="userSpaceOnUse" x1="137.0582" y1="366.0785" x2="202.0576" y2="366.0785" gradientTransform="matrix(1 0 0 -1 0 502)">
	<stop offset="0" style="stop-color:#23286B"/>
	<stop offset="1" style="stop-color:#151A4F"/>
</linearGradient>
<path fill="url(#SVGID_7_-i1)" d="M151.564,97.956c6.221-13.943,12.443-27.887,18.665-41.83c20.228,15.438,28.724,43.143,28.082,68.571  c-0.758,30.043-0.251,57.697,3.747,80.725c-17.263-0.035-44.94,8.29-64.999,10.295c3.285-25.357,15.976-65.227,11.338-90.373  c-0.808-4.38-1.739-8.812-1.348-13.249C147.484,107.142,149.538,102.496,151.564,97.956z"/>
<path fill="#23286B" d="M145.814,155.497c6.211-25.974,12.506-52.436,18.717-78.409c1.048-4.384,2.801-9.522,7.171-10.638  c4.195-1.071,8.227,2.383,10.44,6.104c5.491,9.235,4.954,20.754,3.594,31.412c-4.213,33.028-14.748,65.239-30.867,94.378  c-0.514,0.929-1.09,1.909-2.049,2.366c-1.855,0.885-3.922-0.608-5.419-2.017c-13.984-13.144-28.26-28.413-47.27-31.094  c9.046-8.324,16.538-18.328,21.982-29.347c4.434,5.53,4.434,5.53,9.824,11.59c2.942,3.307,7.327,8.37,10.51,11.446  c3.183,3.075,2.625,7.123,4.447,13.466c3.503-2.289-3.234-15.889-2.156-15.889c-0.134-1.751,6.396,5.984,8.431,7.963  C153.898,165.192,149.772,158.407,145.814,155.497z"/>
<path fill="#FFBEB6" d="M108.89,136.619c1.446-1.474,9.507-0.598,8.274-2.255c-1.37-1.841-6.84-8.068-9.027-8.77  c-4.056-1.302-11.01-4.275-14.739-6.333c-3.729-2.059-10.334-4.942-12.158-3.113c-1.201,1.206,0.464,3.409,1.874,4.362  c1.409,0.953,10.504,4.997,11.984,5.835C102.622,130.605,102.526,130.947,108.89,136.619z"/>
<g>
	<path fill="#78A9EF" d="M150.198,131.105c-0.005,0-0.01,0-0.015,0c-0.277-0.008-0.495-0.239-0.487-0.515   c0.336-11.691,4.213-23.366,10.93-32.947l-4.705-2.335l14.283-22.377c2.068-3.238,4.41-6.91,4.868-10.961   c0.414-3.669-1.213-8.247-5.044-9.502c-0.264-0.086-0.407-0.37-0.321-0.632c0.086-0.263,0.374-0.407,0.633-0.32   c4.336,1.42,6.188,6.504,5.73,10.566c-0.483,4.282-2.894,8.056-5.019,11.387l-13.684,21.436l4.758,2.361l-0.343,0.479   c-6.811,9.509-10.748,21.183-11.084,32.872C150.691,130.889,150.468,131.105,150.198,131.105z"/>
</g>
<linearGradient id="SVGID_8_-i1" gradientUnits="userSpaceOnUse" x1="75.0512" y1="411.2593" x2="100.3009" y2="411.2593" gradientTransform="matrix(1 0 0 -1 0 502)">
	<stop offset="0" style="stop-color:#FFBEB6"/>
	<stop offset="1" style="stop-color:#F2A19C"/>
</linearGradient>
<path fill="url(#SVGID_8_-i1)" d="M76.015,103.643c0.567,0.215,1.202,0.045,1.777-0.146c6.387-2.127,12.411-6.356,15.584-12.288  c0.895-1.673,5.478-7.442,6.44-8.964s0.474-4.145-1.289-4.507c-5.938,7.937-12.112,16.088-20.68,21.076  c-0.941,0.547-1.952,1.099-2.497,2.04C74.803,101.795,74.998,103.256,76.015,103.643z"/>
<linearGradient id="SVGID_9_-i1" gradientUnits="userSpaceOnUse" x1="118.1229" y1="416.5386" x2="92.4703" y2="417.5495" gradientTransform="matrix(1 0 0 -1 0 502)">
	<stop offset="0" style="stop-color:#FFBEB6"/>
	<stop offset="1" style="stop-color:#F2A19C"/>
</linearGradient>
<path fill="url(#SVGID_9_-i1)" d="M122.23,86.917c-0.058,3.009-2.557,4.849-7.571,5.35c-1.137,0.113-4.955-0.549-5.767-1.754  c-2.52-3.74-8.426-3.749-11.534-7.016c-1.376-1.446-0.783-2.868,0.342-4.689c0.196-0.511,1.215-1.202,1.736-1.034  c4.338,1.396,8.675,2.791,13.012,4.188c2.837,0.913,5.678,1.827,8.44,2.946c0.398,0.161,0.815,0.343,1.065,0.693  C122.217,85.973,122.238,86.461,122.23,86.917z"/>
<path fill="#FFBEB6" d="M87.945,89.429c-0.815,0.416-1.695,1.118-1.645,2.081c0.033,0.64,0.486,1.17,0.983,1.532  c1.729,1.259,4.008,1.081,6.09,0.856c5.522-0.599,11.046-1.2,16.568-1.799c2.575-0.28,5.222-0.582,7.514-1.866  c-0.208-1.07-0.415-2.14-0.623-3.21c-0.046-0.238-0.101-0.492-0.271-0.653c-0.227-0.215-0.57-0.189-0.871-0.149  c-4.538,0.604-9.08,1.294-13.652,1.395C97.265,87.721,92.252,87.234,87.945,89.429z"/>
<path fill="#E94A47" d="M151.709,58.021c1.395,5.681,4.415,12.809,4.069,19.046c5.117-8.096,7.036-15.317,15.234-20.272  c-3.11-3.067-5.595-6.764-7.26-10.802c-2.416,2.779-4.831,5.559-7.247,8.339C155.161,55.877,153.693,57.504,151.709,58.021z"/>
<path fill="#FFBEB6" d="M55.254,121.477c10.2,4.37,21.756,5.487,32.594,8.439c1.347,0.367,2.77,0.767,4.14,0.473  c1.37-0.293,2.564-1.594,2.038-2.744c-2.525-0.706-5.051-1.41-7.576-2.116c-7.696-2.149-15.396-4.3-23.215-6.074  c-1.507-0.342-3.07-0.673-4.607-0.452C57.093,119.224,55.576,120.138,55.254,121.477z"/>
<path id="texture_5_-i1" fill="#FFFFFF" d="M186.015,217.372c-0.204,0.066-0.328,0.241-0.262,0.444l0,0  c0.066,0.203,0.241,0.328,0.444,0.262l0,0c0.204-0.066,0.328-0.241,0.262-0.444l0,0C186.395,217.43,186.219,217.306,186.015,217.372  L186.015,217.372z M153.618,232.776c-0.174-0.123-0.379-0.058-0.502,0.117c-0.123,0.174-0.058,0.379,0.117,0.502l0,0  c0.175,0.123,0.379,0.058,0.502-0.117C153.954,233.117,153.794,232.899,153.618,232.776L153.618,232.776L153.618,232.776z   M161.681,237.104c-0.175-0.123-0.379-0.058-0.502,0.117c-0.123,0.174-0.058,0.379,0.117,0.502l0,0  c0.175,0.123,0.379,0.058,0.502-0.117l0,0C161.907,237.525,161.855,237.227,161.681,237.104L161.681,237.104z M169.031,220.692  c-0.123,0.174-0.152,0.364-0.086,0.568c0.175,0.123,0.364,0.152,0.569,0.086c0.123-0.174,0.152-0.364,0.072-0.473  C169.44,220.561,169.25,220.532,169.031,220.692z M174.817,227.87c-0.123,0.174-0.152,0.364-0.086,0.568  c0.174,0.123,0.364,0.152,0.569,0.086c0.123-0.174,0.152-0.364,0.072-0.473C175.226,227.739,174.942,227.695,174.817,227.87  L174.817,227.87z M152.265,251.167c-0.19-0.029-0.408,0.131-0.436,0.321c-0.029,0.189,0.131,0.408,0.321,0.436l0,0  c0.19,0.029,0.408-0.131,0.436-0.321l0,0C152.615,251.413,152.455,251.195,152.265,251.167z M161.416,252.174  c-0.19-0.029-0.408,0.131-0.436,0.321c-0.028,0.189,0.131,0.408,0.321,0.436c0.19,0.028,0.408-0.131,0.436-0.321l0,0  C161.766,252.421,161.606,252.202,161.416,252.174L161.416,252.174L161.416,252.174z M176.156,215.289  c-0.109,0.08-0.248,0.35-0.072,0.473c0.08,0.109,0.35,0.248,0.473,0.072c0.109-0.08,0.248-0.35,0.072-0.473l0,0  C176.565,215.157,176.375,215.128,176.156,215.289L176.156,215.289z M180.74,222.089c-0.109,0.08-0.247,0.35-0.072,0.473  c0.08,0.109,0.256,0.233,0.473,0.072c0.109-0.08,0.233-0.256,0.072-0.473l0,0C181.039,222.038,180.849,222.009,180.74,222.089  L180.74,222.089L180.74,222.089z M157.188,243.684c-0.19-0.029-0.393,0.037-0.422,0.227c-0.029,0.189,0.051,0.299,0.227,0.422l0,0  c0.19,0.029,0.393-0.037,0.422-0.227l0,0C157.442,243.916,157.377,243.713,157.188,243.684L157.188,243.684z M165.181,245.289  c-0.19-0.029-0.393,0.037-0.422,0.227c-0.029,0.189,0.051,0.299,0.227,0.422l0,0c0.19,0.029,0.393-0.037,0.422-0.227l0,0  C165.436,245.522,165.371,245.318,165.181,245.289L165.181,245.289z M167.812,229.321c-0.175-0.123-0.379-0.058-0.502,0.117  c-0.123,0.174-0.058,0.379,0.117,0.502c0.175,0.123,0.379,0.058,0.502-0.117C168.053,229.648,167.986,229.444,167.812,229.321  L167.812,229.321z M168.401,211.491c-0.174-0.123-0.379-0.058-0.502,0.117c-0.123,0.174-0.058,0.379,0.117,0.502  c0.175,0.123,0.379,0.058,0.502-0.117C168.641,211.819,168.575,211.615,168.401,211.491L168.401,211.491z M176.224,216.752  c-0.174-0.123-0.379-0.058-0.502,0.117c-0.123,0.174-0.058,0.379,0.117,0.502c0.175,0.123,0.379,0.058,0.502-0.117  C176.464,217.079,176.399,216.875,176.224,216.752L176.224,216.752z M184.157,221.932c-0.175-0.123-0.379-0.058-0.502,0.117  c-0.123,0.174-0.058,0.379,0.117,0.502c0.174,0.123,0.379,0.058,0.502-0.117C184.302,222.244,184.237,222.041,184.157,221.932z   M160.43,250.377c-0.204,0.066-0.328,0.241-0.262,0.444s0.241,0.328,0.444,0.262s0.328-0.241,0.262-0.444  C160.904,250.449,160.635,250.311,160.43,250.377L160.43,250.377z M196.067,216.289c-0.16-0.219-0.35-0.248-0.569-0.086   M165.038,230.351c-0.19-0.029-0.408,0.131-0.436,0.321c-0.029,0.189,0.131,0.408,0.321,0.436c0.19,0.029,0.408-0.131,0.436-0.321  l0,0C165.388,230.598,165.227,230.379,165.038,230.351L165.038,230.351L165.038,230.351z M164.665,223.901  c-0.19-0.029-0.408,0.131-0.436,0.321c-0.029,0.189,0.131,0.408,0.321,0.436c0.19,0.029,0.393-0.037,0.436-0.321  C165.015,224.148,164.854,223.93,164.665,223.901L164.665,223.901z M173.832,226.073c-0.19-0.029-0.408,0.131-0.436,0.321  c-0.029,0.189,0.037,0.393,0.321,0.436c0.19,0.029,0.408-0.131,0.532-0.307C174.182,226.32,174.021,226.102,173.832,226.073  L173.832,226.073z M185.195,213.857c-0.174-0.123-0.379-0.058-0.502,0.117l0,0c-0.123,0.174-0.058,0.379,0.102,0.596  c0.175,0.123,0.379,0.058,0.597-0.102C185.436,214.184,185.37,213.981,185.195,213.857L185.195,213.857z M186.285,217.511  c-0.19-0.029-0.299,0.051-0.408,0.131c-0.029,0.189,0.051,0.299,0.131,0.408c0.19,0.029,0.299-0.051,0.408-0.131l0,0  C186.446,217.728,186.379,217.525,186.285,217.511L186.285,217.511L186.285,217.511z"/>

        </g>
    </g>
</g>

<!-- ITEM 2 -->
<g>
    <defs>
        
        <clipPath id="clip-path-id-viewbox-item-2">
            <rect x="0.0" y="0.0" width="600.0" height="308.0"/>
        </clipPath>
    </defs>
    <g transform="translate(72.0 881.0) rotate(0.0 461.0 237.0) scale(1.5366666666666666 1.5389610389610389)">
        <g clip-path="url(#clip-path-id-viewbox-item-2)" transform="translate(-0.0 -0.0)">

<polygon fill="#78A9EF" points="324.529,71.737 347.718,79.874 323.731,148.335 300.541,140.198 "/>
<path fill="#23286b" d="M292.179,0C203.113,0,112.733,91.932,91.913,174.594l20.008-1.598  c18.918-72.292,97.837-152.096,175.625-152.096c26.833,0,52.189,6.324,74.664,17.559v139.822h19.658V50.035  c32.859,22.488,57.298,56.392,67.609,96.008l27.363-2.185C456.022,61.194,381.245,0,292.179,0z"/>
<g>
	<polygon fill="#23286B" points="117.937,168.069 114.56,163.897 185.826,106.117 189.203,110.289  "/>
</g>
<g>
	<polygon fill="#23286B" points="200.257,127.443 167.392,92.136 171.318,88.476 204.183,123.783  "/>
</g>
<linearGradient id="SVGID_1_-i2" gradientUnits="userSpaceOnUse" x1="1183.3474" y1="2460.5791" x2="4644.2393" y2="2460.5791" gradientTransform="matrix(0.1278 0 0 0.1278 -86.3478 -137.7908)">
	<stop offset="0" style="stop-color:#23286b"/>
	<stop offset="1" style="stop-color:#000d47"/>
</linearGradient>
<path fill="url(#SVGID_1_-i2)" d="M459.192,108.695l-47.06,1.691l-300.735,34.311c-26.499,3.023-46.513,25.465-46.513,52.156v17.701  c0,16.636,13.477,30.124,30.101,30.124h25.962c8.199-24.301,31.15-41.804,58.199-41.804s49.999,17.504,58.199,41.804h103.206  c8.199-24.301,31.15-41.804,58.199-41.804s49.999,17.504,58.199,41.804h17.064c18.32,0,33.173-14.863,33.173-33.198v-56.449  C507.188,128.772,485.416,107.752,459.192,108.695z"/>
<linearGradient id="SVGID_2_-i2" gradientUnits="userSpaceOnUse" x1="3420.8279" y1="3064.8779" x2="4266.8213" y2="3064.8779" gradientTransform="matrix(0.1278 0 0 0.1278 -86.3478 -137.7908)">
	<stop offset="0" style="stop-color:#A1C3FC"/>
	<stop offset="1" style="stop-color:#81AEF2"/>
</linearGradient>
<ellipse fill="url(#SVGID_2_-i2)" cx="404.893" cy="253.901" rx="54.059" ry="54.099"/>
<ellipse fill="#FFFFFF" cx="404.893" cy="253.901" rx="27.029" ry="27.049"/>
<g>
	<path fill="#EEEEEE" d="M404.893,267.114c-7.28,0-13.204-5.928-13.204-13.214c0-7.286,5.924-13.215,13.204-13.215   s13.204,5.928,13.204,13.215C418.096,261.187,412.173,267.114,404.893,267.114z"/>
	<path fill="#A1C3FC" d="M404.893,242.835c6.107,0,11.058,4.955,11.058,11.066c0,6.112-4.951,11.066-11.058,11.066   c-6.107,0-11.058-4.955-11.058-11.066C393.835,247.79,398.786,242.835,404.893,242.835 M404.893,238.54   c-8.463,0-15.349,6.891-15.349,15.36s6.886,15.36,15.349,15.36s15.349-6.891,15.349-15.36S413.356,238.54,404.893,238.54   L404.893,238.54z"/>
</g>
<ellipse fill="#D6D7D8" cx="83.927" cy="166.603" rx="20.272" ry="20.287"/>
<polygon fill="#D62929" points="80.241,173.882 68.667,162.299 80.241,150.717 91.815,162.299 "/>
<polygon fill="#A1C3FC" points="62.97,173.133 47.613,157.764 62.97,142.395 78.328,157.764 "/>
<polygon fill="#D62929" points="499.817,146.93 484.459,131.562 499.817,116.193 515.174,131.562 "/>
<rect x="576.231" y="84.965" transform="matrix(-0.0286 0.9996 -0.9996 -0.0286 694.5365 -488.367)" fill="#000d47" width="16.679" height="16.666"/>
<polygon fill="#A1C3FC" points="505.903,40.39 520.92,33.158 528.147,48.187 513.129,55.419 "/>
<rect x="52.597" y="206.564" fill="#D6D7D8" width="43.002" height="43.034"/>
<rect x="481.387" y="206.564" fill="#D6D7D8" width="43.002" height="43.034"/>
<g>
	<path fill="#23286B" d="M488.533,73.884c-0.211,0-0.412-0.126-0.497-0.334c-0.112-0.275,0.02-0.587,0.294-0.701   c27.272-11.14,57.132-15.044,86.344-11.288c0.294,0.038,0.502,0.307,0.465,0.601c-0.038,0.294-0.314,0.499-0.601,0.465   c-29.033-3.734-58.702,0.148-85.803,11.217C488.669,73.871,488.601,73.884,488.533,73.884z"/>
</g>
<g>
	<path fill="#23286B" d="M599.363,176.622c-0.02,0-0.041-0.001-0.061-0.003c-0.294-0.033-0.506-0.298-0.473-0.593   c0.791-7.055-3.279-14.902-10.886-20.99c-10.8-8.645-25.384-12.384-39.014-10.012c-0.289,0.056-0.57-0.143-0.62-0.436   c-0.051-0.292,0.145-0.57,0.436-0.62c13.933-2.431,28.831,1.397,39.869,10.231c7.896,6.319,12.115,14.524,11.283,21.947   C599.863,176.419,599.633,176.622,599.363,176.622z"/>
</g>
<g>
	<ellipse fill="#FFFFFF" cx="43.997" cy="120.495" rx="14.13" ry="7.378"/>
	<path fill="#23286b" d="M43.997,129.484c-8.825,0-15.738-3.948-15.738-8.989c0-5.04,6.913-8.989,15.738-8.989   s15.738,3.948,15.738,8.989C59.735,125.535,52.822,129.484,43.997,129.484z M43.997,114.729c-7.378,0-12.519,3.039-12.519,5.767   c0,2.727,5.142,5.767,12.519,5.767s12.519-3.039,12.519-5.767C56.516,117.769,51.374,114.729,43.997,114.729z"/>
</g>
<g>
	<ellipse fill="#FFFFFF" cx="15.738" cy="90.986" rx="14.13" ry="7.378"/>
	<path fill="#23286b" d="M15.738,99.974C6.913,99.974,0,96.026,0,90.985c0-5.041,6.913-8.989,15.738-8.989   c8.826,0,15.739,3.948,15.739,8.989C31.477,96.026,24.564,99.974,15.738,99.974z M15.738,85.22c-7.378,0-12.519,3.039-12.519,5.767   s5.142,5.767,12.519,5.767s12.52-3.039,12.52-5.767S23.116,85.22,15.738,85.22z"/>
</g>
<linearGradient id="SVGID_3_-i2" gradientUnits="userSpaceOnUse" x1="3817.0378" y1="2261.5396" x2="4095.8328" y2="2261.5396" gradientTransform="matrix(0.1278 0 0 0.1278 -86.3478 -137.7908)">
	<stop offset="0" style="stop-color:#23286b"/>
	<stop offset="1" style="stop-color:#000d47"/>
</linearGradient>
<rect x="401.526" y="138.939" fill="url(#SVGID_3_-i2)" width="35.63" height="24.59"/>
<g>
	<path fill="#78A9EF" d="M437.835,301.784c-0.212,0-0.415-0.128-0.499-0.338c-0.109-0.275,0.025-0.587,0.3-0.697   c5.46-2.174,8.994-3.987,12.412-5.741c4.216-2.163,8.196-4.205,15.194-6.574c12.145-4.111,30.414-7.123,41.923-2.081   c0.271,0.118,0.395,0.435,0.277,0.707c-0.119,0.274-0.435,0.394-0.706,0.277c-11.23-4.918-29.185-1.937-41.15,2.116   c-6.923,2.344-10.87,4.368-15.048,6.512c-3.44,1.765-6.997,3.59-12.505,5.783C437.969,301.771,437.901,301.784,437.835,301.784z"/>
</g>
<g>
	<path fill="#78A9EF" d="M465.723,52.293c-0.067,0-0.133-0.012-0.198-0.038c-0.276-0.109-0.41-0.422-0.3-0.697   c7.152-18.042,21.039-33.683,38.101-42.912c0.256-0.139,0.586-0.045,0.726,0.217c0.142,0.261,0.044,0.586-0.217,0.728   c-16.842,9.111-30.552,24.552-37.613,42.364C466.139,52.164,465.937,52.293,465.723,52.293z"/>
</g>
<path id="texture-3_8_-i2" fill="#FFFFFF" d="M352.367,214.675c-0.057-0.191,0.05-0.391,0.241-0.446l0,0  c0.182-0.05,0.373,0.059,0.424,0.242c0.002,0.004,0.003,0.006,0.003,0.006c0.057,0.196-0.05,0.396-0.241,0.453l0,0  C352.607,214.972,352.421,214.859,352.367,214.675z M360.653,212.339c-0.057-0.191,0.051-0.392,0.242-0.447  c0.191-0.057,0.392,0.052,0.447,0.242c0.057,0.191-0.051,0.392-0.242,0.447l0,0C360.911,212.631,360.715,212.526,360.653,212.339  L360.653,212.339z M356.65,178.358c0.092-0.171,0.307-0.232,0.477-0.139s0.232,0.307,0.139,0.479  c-0.092,0.171-0.307,0.232-0.477,0.139l0,0C356.618,178.743,356.555,178.529,356.65,178.358L356.65,178.358z M371.693,186.771  c0.092-0.171,0.307-0.232,0.477-0.139l0,0c0.172,0.102,0.236,0.319,0.15,0.5c-0.112,0.167-0.332,0.224-0.511,0.129  C371.644,187.156,371.591,186.94,371.693,186.771L371.693,186.771z M379.201,190.984c0.092-0.171,0.307-0.232,0.477-0.139l0,0  c0.174,0.101,0.239,0.32,0.15,0.5c-0.092,0.171-0.307,0.232-0.477,0.139l0,0C379.179,191.383,379.113,191.165,379.201,190.984  L379.201,190.984z M385.106,156.156c-0.057-0.191,0.052-0.392,0.242-0.447l0,0c0.172-0.057,0.359,0.036,0.416,0.209  c0.005,0.013,0.01,0.029,0.011,0.045c0.059,0.182-0.04,0.377-0.222,0.437C385.364,156.455,385.162,156.347,385.106,156.156  L385.106,156.156L385.106,156.156z M355.496,196.99c0.023-0.189,0.191-0.325,0.382-0.307c0.189,0.023,0.325,0.191,0.307,0.382  s-0.191,0.325-0.382,0.307c-0.181-0.01-0.32-0.164-0.31-0.345C355.493,197.015,355.495,197.001,355.496,196.99L355.496,196.99z   M372.6,198.999c0.031-0.188,0.206-0.313,0.393-0.284c0.191,0.019,0.329,0.188,0.309,0.378c-0.019,0.191-0.188,0.329-0.378,0.309  c-0.002,0.001-0.005,0-0.005,0c-0.197-0.02-0.34-0.191-0.323-0.386c0.001-0.002,0.004-0.009,0.004-0.009V198.999z M381.164,200.024  c0.01-0.181,0.164-0.32,0.345-0.31c0.011,0.001,0.024,0,0.035,0.003c0.194,0.018,0.337,0.189,0.32,0.384  c0,0.005,0,0.014-0.002,0.019c-0.023,0.189-0.191,0.325-0.382,0.307c-0.195-0.02-0.339-0.193-0.32-0.389  C381.162,200.033,381.163,200.027,381.164,200.024L381.164,200.024z M371.416,168.328c-0.111-0.163-0.083-0.383,0.065-0.514  c0.158-0.124,0.389-0.095,0.514,0.065c0.126,0.161,0.095,0.389-0.065,0.514l0,0C371.767,168.504,371.547,168.476,371.416,168.328  L371.416,168.328z M376.752,175.095c-0.116-0.156-0.079-0.377,0.076-0.492l0,0c0.139-0.127,0.353-0.118,0.481,0.021  c0.005,0.008,0.014,0.015,0.019,0.024c0.118,0.161,0.089,0.386-0.065,0.514C377.102,175.271,376.882,175.242,376.752,175.095  L376.752,175.095z M318.384,205.66c0.014-0.368,0.325-0.656,0.693-0.642c0,0,0.016,0.001,0.024,0  c0.364,0.016,0.647,0.327,0.63,0.691c0.001,0.002-0.001,0.003-0.001,0.003c-0.013,0.371-0.324,0.659-0.692,0.645  c-0.008,0.001-0.016-0.001-0.016-0.001c-0.371-0.015-0.654-0.326-0.637-0.691v-0.006H318.384z M334.687,206.485  c0.019-0.376,0.341-0.662,0.718-0.641c0.376,0.019,0.662,0.341,0.641,0.719l0,0c-0.016,0.364-0.327,0.647-0.691,0.63  c-0.002,0.001-0.003-0.001-0.005,0C334.976,207.169,334.683,206.859,334.687,206.485L334.687,206.485z M351.011,207.295  c0.019-0.376,0.341-0.662,0.718-0.641c0.376,0.019,0.662,0.341,0.641,0.719c-0.019,0.376-0.341,0.662-0.718,0.641  c-0.368-0.014-0.656-0.324-0.644-0.694C351.011,207.315,351.01,207.307,351.011,207.295L351.011,207.295z M331.728,143.165  c-0.245-0.282-0.219-0.707,0.058-0.957c0.259-0.251,0.669-0.246,0.919,0.01c0.01,0.01,0.017,0.016,0.025,0.027  c0.245,0.281,0.219,0.707-0.058,0.957C332.403,143.451,331.98,143.435,331.728,143.165L331.728,143.165L331.728,143.165z   M342.668,155.284c-0.25-0.276-0.232-0.707,0.047-0.959c0.276-0.25,0.706-0.232,0.958,0.047c0.004,0.004,0.01,0.01,0.011,0.013  c0.251,0.271,0.234,0.693-0.038,0.944l0,0C343.356,155.573,342.931,155.552,342.668,155.284L342.668,155.284z M353.635,167.412  c-0.249-0.273-0.232-0.692,0.041-0.941c0.006-0.004,0.012-0.011,0.017-0.015c0.259-0.251,0.67-0.246,0.92,0.01  c0.01,0.01,0.017,0.016,0.025,0.027c0.241,0.288,0.221,0.713-0.046,0.98C354.311,167.717,353.885,167.689,353.635,167.412  L353.635,167.412z M375.543,191.659c-0.25-0.268-0.233-0.691,0.035-0.941s0.69-0.233,0.94,0.035  c0.004,0.006,0.011,0.013,0.017,0.018c0.252,0.266,0.238,0.683-0.028,0.936c-0.004,0.004-0.008,0.005-0.012,0.011  C376.218,191.964,375.793,191.938,375.543,191.659L375.543,191.659z M329.873,232.426c-0.123-0.355,0.064-0.741,0.416-0.864  c0.352-0.121,0.74,0.064,0.863,0.416c0,0,0.002,0.004,0.003,0.006c0.118,0.353-0.071,0.738-0.422,0.862  c-0.349,0.123-0.733-0.059-0.856-0.408C329.876,232.433,329.875,232.429,329.873,232.426L329.873,232.426z M345.277,226.947  c-0.136-0.341,0.03-0.727,0.37-0.864c0.339-0.135,0.726,0.03,0.863,0.37c0.006,0.015,0.012,0.029,0.016,0.046  c0.122,0.344-0.061,0.724-0.405,0.846S345.402,227.288,345.277,226.947z M317.153,174.905c0.168-0.329,0.572-0.46,0.902-0.289  c0.329,0.168,0.46,0.572,0.289,0.903c-0.166,0.323-0.559,0.455-0.885,0.299C317.129,175.645,316.991,175.242,317.153,174.905  L317.153,174.905z M331.911,181.919c0.168-0.329,0.572-0.46,0.902-0.289c0.329,0.168,0.46,0.572,0.289,0.903  c-0.166,0.323-0.559,0.454-0.886,0.297C331.885,182.659,331.75,182.254,331.911,181.919L331.911,181.919z M346.657,188.907  c0.173-0.339,0.586-0.47,0.925-0.297c0.326,0.165,0.464,0.558,0.315,0.893c-0.153,0.347-0.56,0.501-0.907,0.347  c-0.347-0.155-0.501-0.56-0.347-0.908C346.648,188.93,346.652,188.918,346.657,188.907z M363.134,133.09  c-0.118-0.353,0.071-0.738,0.422-0.862c0.342-0.126,0.72,0.052,0.845,0.395l0.003,0.006c0.142,0.328-0.012,0.71-0.34,0.852  c-0.015,0.006-0.031,0.013-0.049,0.019C363.659,133.613,363.278,133.437,363.134,133.09L363.134,133.09z M368.629,148.495  c-0.113-0.355,0.065-0.74,0.409-0.882c0.353-0.118,0.737,0.071,0.861,0.422c0.123,0.349-0.059,0.734-0.408,0.857  c-0.004,0.002-0.006,0.003-0.012,0.004c-0.342,0.126-0.72-0.053-0.845-0.393C368.63,148.497,368.629,148.495,368.629,148.495  L368.629,148.495z M374.109,163.875c-0.13-0.333,0.035-0.709,0.369-0.837c0.009-0.003,0.02-0.009,0.029-0.01  c0.343-0.137,0.734,0.033,0.87,0.377c0.004,0.012,0.009,0.02,0.013,0.031c0.123,0.355-0.064,0.741-0.416,0.864  c-0.355,0.123-0.74-0.064-0.863-0.416C374.113,163.883,374.111,163.877,374.109,163.875z M379.586,179.29  c-0.118-0.353,0.071-0.738,0.422-0.862c0.334-0.128,0.708,0.038,0.837,0.372c0.003,0.009,0.009,0.02,0.01,0.029  c0.128,0.348-0.044,0.733-0.387,0.87C380.109,179.822,379.721,179.642,379.586,179.29L379.586,179.29z M310.671,189.566  c0.114-0.309,0.455-0.471,0.767-0.364c0.311,0.111,0.474,0.454,0.364,0.768c-0.111,0.311-0.454,0.474-0.767,0.364l0,0  C310.724,190.216,310.563,189.878,310.671,189.566L310.671,189.566z M324.377,194.532c0.114-0.309,0.455-0.471,0.767-0.364  c0.315,0.102,0.487,0.441,0.385,0.757c-0.102,0.315-0.441,0.487-0.756,0.385c-0.012-0.003-0.02-0.008-0.034-0.012  c-0.308-0.102-0.474-0.436-0.372-0.743C324.371,194.547,324.374,194.539,324.377,194.532L324.377,194.532z M338.113,199.928  c-0.074-0.131-0.084-0.29-0.028-0.432c0.114-0.309,0.455-0.471,0.767-0.364c0.32,0.112,0.489,0.461,0.378,0.784  c-0.001,0.003-0.001,0.003-0.003,0.006c-0.068,0.189-0.224,0.334-0.421,0.384l-0.021,0.011c-0.108,0.034-0.226,0.021-0.327-0.034  C338.291,200.235,338.162,200.098,338.113,199.928L338.113,199.928z M351.793,204.463c0.117-0.317,0.469-0.476,0.783-0.357  s0.476,0.469,0.357,0.784c-0.114,0.309-0.455,0.471-0.767,0.364c-0.32-0.112-0.489-0.461-0.378-0.784  c0.004-0.002,0.004-0.004,0.004-0.004L351.793,204.463z M352.083,144.705c-0.132-0.312,0.002-0.672,0.306-0.822  c0.29-0.139,0.637-0.016,0.777,0.275c0.003,0.009,0.006,0.015,0.01,0.025c0.146,0.297,0.025,0.658-0.274,0.804  c-0.004,0.002-0.006,0.003-0.012,0.004C352.59,145.122,352.237,144.996,352.083,144.705z M358.27,157.886  c-0.135-0.299-0.001-0.651,0.295-0.789c0.29-0.139,0.637-0.016,0.776,0.275c0.003,0.009,0.006,0.015,0.01,0.025  c0.146,0.297,0.025,0.658-0.274,0.806c-0.004,0.002-0.006,0.003-0.012,0.004C358.761,158.331,358.407,158.19,358.27,157.886  L358.27,157.886z M364.459,171.122c-0.146-0.297-0.025-0.659,0.274-0.804c0.004-0.002,0.006-0.003,0.012-0.004  c0.278-0.144,0.62-0.032,0.764,0.245c0.01,0.017,0.016,0.034,0.024,0.053c0.146,0.297,0.025,0.658-0.274,0.806  c-0.004,0.002-0.006,0.003-0.012,0.004C364.95,171.546,364.601,171.415,364.459,171.122L364.459,171.122z M370.625,184.314  c-0.133-0.308,0.012-0.665,0.321-0.799c0.297-0.127,0.645,0.001,0.784,0.295c0.13,0.301,0.008,0.654-0.284,0.81  C371.134,184.752,370.776,184.619,370.625,184.314L370.625,184.314z M376.816,197.548c-0.146-0.3-0.019-0.665,0.281-0.812  s0.664-0.019,0.81,0.281l0.002,0.004c0.132,0.312-0.002,0.672-0.306,0.822C377.303,197.963,376.964,197.835,376.816,197.548  L376.816,197.548z M327.391,220.808c-0.017-0.326,0.234-0.603,0.561-0.621c0.01-0.001,0.018,0,0.028-0.001  c0.314-0.02,0.586,0.216,0.608,0.53c0,0.014,0.002,0.025,0.001,0.036c0.025,0.329-0.224,0.618-0.555,0.643  c-0.008,0.001-0.015,0.001-0.015,0.001C327.682,221.396,327.409,221.138,327.391,220.808L327.391,220.808z M371.078,218.825  c-0.005-0.335,0.255-0.609,0.59-0.623c0.335-0.011,0.612,0.254,0.623,0.59c0.009,0.336-0.254,0.612-0.59,0.623  C371.367,219.422,371.088,219.16,371.078,218.825z M331.58,169.239c-0.238-0.232-0.248-0.612-0.021-0.855  c0.222-0.244,0.598-0.264,0.841-0.042c0.24,0.227,0.267,0.606,0.056,0.863C332.222,169.455,331.834,169.47,331.58,169.239z   M342.361,179.073c-0.244-0.207-0.274-0.572-0.068-0.816c0.006-0.009,0.016-0.017,0.023-0.027c0.222-0.244,0.598-0.264,0.841-0.042  c0.24,0.227,0.267,0.606,0.056,0.863C342.984,179.289,342.605,179.3,342.361,179.073z M353.12,188.919  c-0.244-0.222-0.264-0.598-0.042-0.842c0.222-0.243,0.598-0.264,0.841-0.042c0.244,0.222,0.264,0.598,0.042,0.842  C353.74,189.121,353.366,189.137,353.12,188.919L353.12,188.919z M381.726,144.724c-0.02-0.314,0.216-0.586,0.53-0.608  c0.014,0,0.025-0.002,0.036-0.001c0.329-0.025,0.618,0.224,0.643,0.555l0.001,0.02c0.001,0.33-0.258,0.605-0.59,0.623  c-0.326,0.017-0.603-0.234-0.621-0.561C381.726,144.743,381.726,144.732,381.726,144.724L381.726,144.724z M382.385,159.308  c-0.013-0.334,0.241-0.619,0.576-0.643c0.336-0.006,0.617,0.26,0.624,0.599c0.005,0.321-0.237,0.591-0.557,0.619  c-0.325,0.028-0.614-0.215-0.642-0.54C382.383,159.331,382.384,159.32,382.385,159.308L382.385,159.308z M333.705,217.436  c0.033-0.196,0.219-0.328,0.414-0.296c0.196,0.033,0.328,0.219,0.296,0.414c-0.032,0.195-0.219,0.328-0.414,0.296l0,0  C333.811,217.814,333.68,217.631,333.705,217.436L333.705,217.436z M350.707,220.089c0.031-0.188,0.206-0.313,0.393-0.284  c0.183,0.015,0.321,0.172,0.306,0.355c-0.002,0.019-0.005,0.039-0.01,0.059c-0.031,0.188-0.206,0.313-0.393,0.284  c-0.183-0.017-0.323-0.177-0.306-0.361C350.701,220.125,350.704,220.107,350.707,220.089z M352.627,186.771  c-0.116-0.156-0.079-0.377,0.076-0.492c0.155-0.115,0.377-0.079,0.493,0.076c0.116,0.156,0.079,0.377-0.076,0.492l0,0  C352.962,186.965,352.742,186.932,352.627,186.771L352.627,186.771L352.627,186.771z M372.887,214.582  c-0.116-0.156-0.079-0.377,0.076-0.492l0,0c0.157-0.113,0.379-0.075,0.492,0.082c0.111,0.156,0.078,0.373-0.076,0.487  C373.222,214.774,373.002,214.738,372.887,214.582L372.887,214.582L372.887,214.582z M339.037,235.537  c-0.039-0.187,0.071-0.373,0.254-0.427c0.195-0.038,0.387,0.083,0.441,0.275c0.05,0.182-0.059,0.373-0.242,0.424  c-0.004,0.002-0.006,0.003-0.006,0.003C339.28,235.848,339.087,235.728,339.037,235.537L339.037,235.537z M347.395,233.518  c-0.045-0.188,0.069-0.377,0.254-0.427c0.178-0.055,0.366,0.046,0.421,0.226c0.003,0.009,0.005,0.019,0.005,0.019  c0.057,0.182-0.036,0.369-0.208,0.426c-0.014,0.005-0.029,0.01-0.045,0.011c-0.182,0.05-0.373-0.059-0.424-0.242  C347.398,233.529,347.397,233.523,347.395,233.518L347.395,233.518z M343.886,202.692c0.111-0.158,0.321-0.206,0.489-0.117  c0.166,0.094,0.224,0.308,0.129,0.475c-0.003,0.006-0.005,0.01-0.011,0.017c-0.089,0.164-0.297,0.225-0.461,0.135  c-0.01-0.006-0.019-0.01-0.019-0.01C343.836,203.08,343.785,202.861,343.886,202.692z M351.241,207.163  c0.111-0.158,0.321-0.206,0.489-0.117c0.163,0.105,0.215,0.322,0.117,0.489c-0.086,0.167-0.291,0.235-0.458,0.149  c-0.006-0.003-0.013-0.008-0.02-0.013c-0.175-0.097-0.237-0.315-0.142-0.489C351.232,207.178,351.236,207.171,351.241,207.163  L351.241,207.163z M358.586,211.668c0.089-0.164,0.297-0.225,0.461-0.135c0.01,0.006,0.019,0.01,0.028,0.017  c0.167,0.104,0.219,0.323,0.117,0.489c-0.111,0.158-0.321,0.206-0.489,0.117c-0.166-0.094-0.224-0.308-0.129-0.471  C358.577,211.679,358.581,211.675,358.586,211.668L358.586,211.668z M370.282,183.339c-0.048-0.189,0.065-0.379,0.254-0.427  c0.189-0.048,0.379,0.065,0.427,0.254l0,0c0.057,0.172-0.036,0.359-0.209,0.416c-0.013,0.005-0.029,0.01-0.045,0.011  c-0.182,0.05-0.373-0.059-0.424-0.242L370.282,183.339L370.282,183.339z M372.297,191.704c-0.043-0.196,0.078-0.392,0.275-0.441  c0.185-0.039,0.366,0.079,0.407,0.263l0.001,0.002c0.057,0.172-0.036,0.359-0.209,0.416c-0.013,0.005-0.029,0.01-0.045,0.011  c-0.182,0.05-0.373-0.059-0.424-0.242c-0.002-0.001-0.002-0.003-0.002-0.003L372.297,191.704z M374.312,200.071  c-0.044-0.198,0.079-0.395,0.276-0.438s0.392,0.078,0.437,0.274c0.032,0.201-0.103,0.388-0.304,0.423  C374.544,200.359,374.366,200.249,374.312,200.071z M323.612,214.504c0.069-0.203,0.291-0.311,0.494-0.241  c0.003,0.001,0.009,0.002,0.009,0.002c0.212,0.068,0.328,0.29,0.264,0.497c-0.004,0.01-0.008,0.02-0.011,0.03  c-0.069,0.203-0.291,0.311-0.494,0.241c-0.003-0.001-0.009-0.002-0.009-0.002C323.651,214.951,323.541,214.717,323.612,214.504  L323.612,214.504z M332.862,217.761c0.075-0.214,0.311-0.327,0.524-0.25c0.214,0.077,0.327,0.311,0.25,0.524l0,0  c-0.069,0.203-0.291,0.311-0.494,0.241c0,0-0.009-0.002-0.012-0.003c-0.209-0.056-0.338-0.271-0.28-0.484  C332.853,217.781,332.857,217.771,332.862,217.761L332.862,217.761z M351.173,183.983c-0.1-0.183-0.031-0.412,0.149-0.512  c0.015-0.009,0.028-0.014,0.044-0.02c0.201-0.091,0.438-0.006,0.532,0.193c0.086,0.205,0.01,0.44-0.182,0.554  c-0.208,0.092-0.453-0.003-0.542-0.212L351.173,183.983L351.173,183.983z M355.405,192.847c-0.092-0.208,0.003-0.453,0.212-0.542  l0.002-0.001c0.201-0.091,0.438-0.006,0.532,0.193c0.086,0.205,0.01,0.44-0.182,0.554  C355.76,193.137,355.515,193.046,355.405,192.847L355.405,192.847z M363.951,210.558c-0.109-0.179-0.054-0.414,0.126-0.526  c0.017-0.01,0.036-0.02,0.057-0.029c0.201-0.091,0.438-0.006,0.532,0.193c0.097,0.204,0.017,0.446-0.182,0.554  C364.28,210.842,364.044,210.758,363.951,210.558L363.951,210.558z M325.965,235.653c-0.023-0.223,0.138-0.422,0.363-0.444  c0.008-0.001,0.013,0,0.02-0.001c0.223,0.003,0.407,0.174,0.427,0.395c0.012,0.222-0.158,0.413-0.382,0.426c0,0-0.01,0.001-0.014,0  C326.164,236.037,325.977,235.869,325.965,235.653L325.965,235.653z M335.759,235.095c-0.011-0.218,0.158-0.402,0.376-0.413  c0.223-0.023,0.422,0.138,0.444,0.363c0,0,0,0.013,0.001,0.02c0.006,0.227-0.173,0.414-0.4,0.421  C335.959,235.491,335.771,235.317,335.759,235.095z M345.567,234.556c-0.02-0.208,0.131-0.392,0.339-0.412  c0.012-0.003,0.023-0.001,0.036-0.001c0.211-0.026,0.405,0.122,0.433,0.336c0.001,0.01,0.001,0.017,0.003,0.028  c0.023,0.223-0.138,0.422-0.363,0.444c-0.223,0.023-0.422-0.138-0.444-0.363C345.567,234.577,345.567,234.567,345.567,234.556z   M338.113,199.928c0.016-0.056,0.042-0.108,0.077-0.157c0.144-0.165,0.397-0.179,0.562-0.035c0.004,0.004,0.008,0.004,0.012,0.009  c0.159,0.146,0.179,0.388,0.047,0.559l-0.021,0.011c-0.144,0.165-0.397,0.179-0.562,0.035c-0.004-0.004-0.009-0.006-0.009-0.006  C338.097,200.244,338.055,200.074,338.113,199.928L338.113,199.928z M345.551,206.897c-0.166-0.141-0.189-0.387-0.05-0.556  c0,0,0.001-0.003,0.004-0.004c0.148-0.167,0.401-0.192,0.582-0.059c0.161,0.159,0.178,0.414,0.038,0.592  C345.973,207.038,345.715,207.048,345.551,206.897L345.551,206.897z M352.852,213.441c-0.166-0.152-0.176-0.408-0.026-0.572  c0.152-0.166,0.408-0.176,0.572-0.026c0.166,0.152,0.176,0.408,0.026,0.572l0,0c-0.144,0.165-0.397,0.179-0.562,0.035  C352.858,213.449,352.857,213.445,352.852,213.441L352.852,213.441z M371.797,183.492c-0.012-0.222,0.158-0.413,0.38-0.425  c0,0,0.01-0.001,0.014,0c0.218-0.011,0.401,0.158,0.413,0.376c0.026,0.211-0.122,0.405-0.336,0.433  c-0.01,0.001-0.017,0.001-0.028,0.003C372.016,183.893,371.816,183.72,371.797,183.492L371.797,183.492z M372.355,193.294  c-0.02-0.208,0.133-0.393,0.339-0.412c0.012-0.003,0.023-0.001,0.036-0.001c0.211-0.026,0.405,0.122,0.43,0.334  c0.001,0.01,0.001,0.017,0.003,0.028c0.015,0.23-0.155,0.428-0.381,0.447C372.556,193.699,372.365,193.523,372.355,193.294  C372.356,193.296,372.355,193.294,372.355,193.294L372.355,193.294z M372.893,203.109c-0.013-0.224,0.161-0.414,0.382-0.426  c0.22-0.011,0.41,0.155,0.426,0.374c0.023,0.223-0.138,0.422-0.363,0.444c-0.007,0.001-0.014,0-0.021,0.001  C373.096,203.502,372.913,203.331,372.893,203.109L372.893,203.109z M300.888,177.556c-0.27-0.274-0.28-0.711-0.021-0.997  c0.262-0.281,0.7-0.299,0.982-0.042c0.275,0.273,0.284,0.715,0.021,0.997C301.609,177.799,301.17,177.815,300.888,177.556z   M313.214,189.033c-0.283-0.261-0.299-0.701-0.042-0.983c0.261-0.283,0.7-0.299,0.982-0.042c0.283,0.261,0.299,0.701,0.042,0.983  C313.935,189.275,313.497,189.294,313.214,189.033L313.214,189.033z M325.516,200.525c-0.275-0.273-0.284-0.715-0.02-0.997  c0.271-0.271,0.708-0.271,0.98-0.004c0.271,0.27,0.271,0.709,0.004,0.981C326.215,200.771,325.791,200.779,325.516,200.525z   M350.146,223.494c-0.275-0.273-0.284-0.715-0.021-0.997c0.266-0.276,0.703-0.283,0.979-0.016c0.27,0.264,0.282,0.695,0.025,0.972  C350.867,223.736,350.43,223.754,350.146,223.494L350.146,223.494z M365.141,147.644c-0.002-0.391,0.299-0.715,0.69-0.737  c0.388-0.002,0.704,0.314,0.703,0.705c0.001,0.376-0.293,0.686-0.67,0.703C365.486,148.32,365.165,148.026,365.141,147.644  L365.141,147.644z M365.736,164.476c-0.006-0.381,0.286-0.702,0.667-0.726c0.385-0.016,0.709,0.283,0.725,0.668  c0.016,0.385-0.283,0.71-0.667,0.726C366.078,165.153,365.759,164.858,365.736,164.476z M366.331,181.305  c-0.009-0.382,0.284-0.706,0.667-0.726c0.391-0.002,0.714,0.299,0.736,0.691c-0.001,0.389-0.317,0.704-0.706,0.703  C366.658,181.97,366.351,181.678,366.331,181.305L366.331,181.305z M320.236,222.683c0.136-0.365,0.54-0.55,0.907-0.415  c0.365,0.136,0.55,0.54,0.415,0.908c-0.136,0.365-0.54,0.55-0.907,0.415C320.292,223.445,320.11,223.047,320.236,222.683  L320.236,222.683z M336.008,228.601c0.119-0.364,0.51-0.561,0.873-0.444c0.006,0.003,0.012,0.005,0.018,0.006  c0.359,0.141,0.543,0.541,0.413,0.904c-0.129,0.363-0.53,0.551-0.892,0.418c-0.003-0.001-0.01-0.004-0.01-0.004  C336.056,229.35,335.876,228.956,336.008,228.601L336.008,228.601z M351.788,234.486c0.131-0.364,0.532-0.549,0.894-0.417  c0.003,0.001,0.006,0.003,0.01,0.004c0.337,0.13,0.504,0.504,0.379,0.843c0.011,0.021,0.011,0.021,0.004,0.053  c-0.12,0.333-0.475,0.516-0.818,0.422l-0.068-0.017c-0.349-0.119-0.536-0.499-0.414-0.85  C351.778,234.508,351.781,234.496,351.788,234.486L351.788,234.486z M332.246,163.898c-0.142-0.355,0.013-0.76,0.351-0.934  c0.353-0.146,0.757,0.016,0.912,0.366c0.164,0.34,0.023,0.751-0.32,0.915c-0.004,0.002-0.009,0.003-0.014,0.005  C332.826,164.413,332.411,164.256,332.246,163.898C332.248,163.902,332.248,163.902,332.246,163.898L332.246,163.898z   M339.243,179.24c-0.16-0.355-0.003-0.771,0.35-0.933c0,0,0,0,0.002-0.001c0.342-0.154,0.746-0.001,0.898,0.342l0,0  c0.166,0.345,0.02,0.756-0.324,0.923c-0.345,0.166-0.755,0.02-0.922-0.324C339.246,179.246,339.245,179.243,339.243,179.24z   M346.226,194.557c-0.164-0.34-0.023-0.751,0.318-0.915c0.004-0.002,0.009-0.003,0.013-0.005c0.348-0.171,0.77-0.029,0.941,0.322  c0.171,0.348,0.029,0.771-0.322,0.943c-0.348,0.171-0.77,0.029-0.942-0.322C346.234,194.581,346.229,194.566,346.226,194.557z   M353.211,209.876c-0.15-0.351,0.013-0.76,0.364-0.91c0.342-0.147,0.74,0.005,0.9,0.341c0.161,0.343,0.013,0.757-0.332,0.92  C353.789,210.388,353.37,210.233,353.211,209.876L353.211,209.876L353.211,209.876z M322.742,234.676  c0.133-0.354,0.514-0.553,0.881-0.457c0.362,0.132,0.553,0.527,0.436,0.893c-0.101,0.354-0.47,0.559-0.823,0.457  c-0.012-0.003-0.025-0.008-0.035-0.011c-0.367-0.112-0.573-0.5-0.461-0.867C322.739,234.689,322.74,234.683,322.742,234.676  L322.742,234.676z M320.881,165.936c-0.163-0.343-0.015-0.756,0.332-0.921c0.345-0.164,0.755-0.015,0.919,0.332  c0.158,0.335,0.023,0.737-0.307,0.909C321.474,166.425,321.054,166.282,320.881,165.936L320.881,165.936z M328.469,180.901  c-0.171-0.348-0.028-0.769,0.319-0.942c0.339-0.161,0.747-0.029,0.929,0.298c0.166,0.353,0.031,0.772-0.306,0.962  C329.06,181.383,328.648,181.239,328.469,180.901L328.469,180.901z M336.058,195.866c-0.171-0.348-0.028-0.769,0.319-0.942  c0.338-0.174,0.755-0.04,0.929,0.298c0.174,0.338,0.04,0.756-0.298,0.93l0,0C336.665,196.327,336.246,196.202,336.058,195.866  L336.058,195.866z M343.667,210.821c-0.18-0.324-0.063-0.728,0.26-0.909c0.013-0.008,0.026-0.013,0.039-0.021  c0.339-0.172,0.752-0.036,0.929,0.298c0.172,0.339,0.038,0.755-0.301,0.926C344.254,211.29,343.842,211.158,343.667,210.821  L343.667,210.821z M380.807,191.867c0.132-0.362,0.527-0.553,0.892-0.436c0.356,0.124,0.545,0.514,0.424,0.872  c-0.101,0.354-0.47,0.559-0.823,0.457c-0.012-0.003-0.025-0.008-0.035-0.011c-0.367-0.112-0.573-0.5-0.461-0.867  C380.804,191.876,380.806,191.872,380.807,191.867L380.807,191.867z M311.927,205.758c-0.286-0.249-0.313-0.682-0.067-0.967  c0.002-0.001,0.001-0.003,0.004-0.004c0.246-0.295,0.681-0.337,0.977-0.095c0.289,0.256,0.322,0.696,0.074,0.993  C312.661,205.968,312.226,206.003,311.927,205.758L311.927,205.758z M324.683,216.677c-0.293-0.247-0.332-0.682-0.086-0.975  c0.246-0.293,0.681-0.332,0.974-0.086c0.003,0.001,0.004,0.006,0.009,0.006c0.284,0.257,0.319,0.695,0.074,0.993  c-0.249,0.286-0.681,0.313-0.966,0.067l-0.004-0.004L324.683,216.677z M337.405,227.589c-0.285-0.262-0.305-0.709-0.042-0.996  c0.251-0.274,0.672-0.304,0.959-0.072c0.294,0.254,0.327,0.697,0.074,0.993C338.143,227.81,337.697,227.843,337.405,227.589z   M355.927,164.819c-0.02-0.385,0.271-0.719,0.657-0.747c0.378-0.025,0.707,0.259,0.733,0.635c0.044,0.371-0.221,0.708-0.593,0.754  c-0.01,0.001-0.02,0.002-0.03,0.002c-0.383,0.041-0.726-0.24-0.764-0.62c0-0.009-0.001-0.016-0.001-0.016L355.927,164.819z   M357.22,181.55c-0.02-0.385,0.271-0.719,0.657-0.747c0.379-0.026,0.707,0.259,0.733,0.635c0.044,0.371-0.221,0.708-0.594,0.753  c-0.01,0.001-0.02,0.002-0.03,0.002c-0.383,0.039-0.725-0.239-0.764-0.622c0.001-0.006,0-0.014,0-0.014L357.22,181.55z   M359.805,215.014c-0.018-0.384,0.274-0.713,0.657-0.747c0.379-0.026,0.707,0.259,0.733,0.635c0.021,0.374-0.251,0.705-0.622,0.754  c-0.387,0.034-0.73-0.249-0.766-0.635C359.806,215.021,359.804,215.017,359.805,215.014L359.805,215.014z M329.599,239.495  c0.147-0.255,0.469-0.342,0.723-0.194c0.252,0.145,0.342,0.469,0.195,0.722c-0.141,0.245-0.453,0.329-0.697,0.19  c-0.003-0.001-0.003-0.001-0.006-0.003C329.565,240.067,329.47,239.752,329.599,239.495L329.599,239.495z M339.021,188.517  c-0.074-0.28,0.093-0.568,0.373-0.638c0.273-0.072,0.557,0.087,0.636,0.359c0.082,0.264-0.064,0.546-0.329,0.629  c-0.016,0.004-0.035,0.009-0.051,0.013C339.377,188.946,339.099,188.787,339.021,188.517L339.021,188.517z M342.267,200.725  c-0.073-0.28,0.1-0.57,0.381-0.642c0.283-0.074,0.57,0.1,0.642,0.381l0,0c0.076,0.277-0.087,0.562-0.362,0.637  c-0.006,0.003-0.012,0.003-0.019,0.005C342.626,201.174,342.343,201.005,342.267,200.725L342.267,200.725z M345.524,212.957  c-0.073-0.28,0.1-0.57,0.381-0.642c0.28-0.073,0.57,0.1,0.642,0.381c0.073,0.28-0.1,0.57-0.381,0.642l0,0  C345.882,213.403,345.6,213.233,345.524,212.957L345.524,212.957z M318.702,206.064c-0.17-0.231-0.122-0.558,0.104-0.733  c0.236-0.158,0.551-0.115,0.732,0.104c0.175,0.229,0.129,0.556-0.101,0.731c-0.002,0.001-0.002,0.001-0.004,0.004  c-0.216,0.174-0.534,0.142-0.708-0.075C318.718,206.083,318.708,206.073,318.702,206.064z M326.38,216.136  c-0.172-0.236-0.13-0.564,0.093-0.753c0.229-0.175,0.556-0.129,0.73,0.101c0.001,0.002,0.001,0.002,0.001,0.002  c0.179,0.217,0.149,0.534-0.065,0.712c-0.005,0.004-0.011,0.006-0.016,0.012c-0.223,0.185-0.55,0.156-0.736-0.067L326.38,216.136  L326.38,216.136z M334.067,226.177c-0.174-0.216-0.142-0.534,0.075-0.709c0.011-0.006,0.019-0.016,0.03-0.023  c0.212-0.177,0.526-0.149,0.704,0.063c0.005,0.008,0.011,0.013,0.017,0.023c0.172,0.236,0.13,0.564-0.093,0.753  c-0.229,0.175-0.556,0.129-0.73-0.101L334.067,226.177L334.067,226.177z M363.566,205.38c0.049-0.291,0.324-0.488,0.614-0.44  c0.278,0.047,0.47,0.299,0.443,0.579c-0.038,0.292-0.306,0.498-0.599,0.459C363.733,205.941,363.529,205.675,363.566,205.38z   M333.401,229.981c-0.077-0.138-0.031-0.317,0.105-0.397c0.139-0.079,0.317-0.035,0.397,0.105c0.079,0.139,0.035,0.317-0.105,0.397  c-0.006,0.003-0.015,0.009-0.021,0.011C333.637,230.162,333.476,230.11,333.401,229.981L333.401,229.981z M336.654,236.055  c-0.072-0.133-0.023-0.298,0.109-0.373c0,0,0.004-0.002,0.006-0.003c0.121-0.075,0.282-0.039,0.357,0.083  c0.006,0.011,0.012,0.024,0.019,0.033c0.082,0.131,0.045,0.303-0.086,0.384c-0.005,0.004-0.013,0.007-0.019,0.01  C336.898,236.248,336.731,236.191,336.654,236.055L336.654,236.055z M347.813,229.192c-0.02-0.151,0.089-0.289,0.24-0.308  c0.161-0.016,0.304,0.099,0.32,0.26l0.001,0.002c0.021,0.148-0.083,0.286-0.232,0.308c0,0-0.005,0-0.01,0.001  C347.974,229.468,347.83,229.351,347.813,229.192L347.813,229.192L347.813,229.192z M348.49,236.072  c-0.018-0.16,0.099-0.304,0.26-0.32l0.002-0.001c0.16-0.018,0.304,0.099,0.321,0.259c0.018,0.16-0.099,0.304-0.259,0.321  l-0.002,0.001C348.648,236.348,348.504,236.232,348.49,236.072L348.49,236.072L348.49,236.072z M332.882,216.21  c-0.019-0.259,0.173-0.485,0.433-0.505l0,0c0.237-0.034,0.455,0.131,0.487,0.365c0.001,0.015,0.004,0.029,0.003,0.046  c0.04,0.239-0.123,0.467-0.363,0.507c-0.012,0.003-0.025,0.002-0.036,0.005c-0.251,0.038-0.486-0.136-0.52-0.388  C332.882,216.23,332.881,216.221,332.882,216.21L332.882,216.21z M334.08,227.596c-0.04-0.239,0.123-0.467,0.363-0.508  c0.012-0.003,0.025-0.002,0.036-0.005c0.251-0.038,0.486,0.136,0.52,0.388c0,0,0.003,0.023,0.003,0.032  c0.028,0.26-0.162,0.494-0.419,0.525c-0.25,0.026-0.475-0.156-0.501-0.406c0-0.01,0-0.018,0-0.018L334.08,227.596z M335.25,238.972  c-0.021-0.26,0.163-0.49,0.419-0.525c0.255-0.033,0.49,0.148,0.524,0.402c0,0,0.003,0.012,0.001,0.017  c0.028,0.26-0.162,0.494-0.419,0.525C335.516,239.415,335.283,239.232,335.25,238.972L335.25,238.972z M352.255,235.387  c-0.062-0.111-0.08-0.241-0.044-0.366c0.082-0.249,0.344-0.391,0.598-0.321c0.106,0.043,0.198,0.115,0.263,0.211  c0.011,0.021,0.011,0.021,0.003,0.054c0.065,0.099,0.086,0.218,0.054,0.333c-0.082,0.249-0.344,0.391-0.598,0.321  C352.416,235.572,352.32,235.491,352.255,235.387L352.255,235.387z"/>
<linearGradient id="SVGID_4_-i2" gradientUnits="userSpaceOnUse" x1="1702.4789" y1="3064.8779" x2="2548.4724" y2="3064.8779" gradientTransform="matrix(0.1278 0 0 0.1278 -86.3478 -137.7908)">
	<stop offset="0" style="stop-color:#A1C3FC"/>
	<stop offset="1" style="stop-color:#81AEF2"/>
</linearGradient>
<ellipse fill="url(#SVGID_4_-i2)" cx="185.288" cy="253.901" rx="54.059" ry="54.099"/>
<ellipse fill="#FFFFFF" cx="185.288" cy="253.901" rx="27.029" ry="27.049"/>
<g>
	<path fill="#EEEEEE" d="M185.288,267.114c-7.28,0-13.204-5.928-13.204-13.214c0-7.286,5.924-13.215,13.204-13.215   c7.281,0,13.204,5.928,13.204,13.215C198.492,261.187,192.569,267.114,185.288,267.114z"/>
	<path fill="#A1C3FC" d="M185.288,242.835c6.107,0,11.058,4.955,11.058,11.066c0,6.112-4.951,11.066-11.058,11.066   s-11.058-4.955-11.058-11.066C174.23,247.79,179.182,242.835,185.288,242.835 M185.288,238.54c-8.463,0-15.349,6.891-15.349,15.36   s6.886,15.36,15.349,15.36s15.349-6.891,15.349-15.36S193.752,238.54,185.288,238.54L185.288,238.54z"/>
</g>

        </g>
    </g>
</g>

              </svg>