<svg width="42" height="42" viewBox="0 0 42 42" fill="none" xmlns="http://www.w3.org/2000/svg">
<path d="M31.5 36.75H10.5C7.60025 36.75 5.25 34.3997 5.25 31.5V10.5C5.25 7.60025 7.60025 5.25 10.5 5.25H31.5C34.3997 5.25 36.75 7.60025 36.75 10.5V31.5C36.75 34.3997 34.3997 36.75 31.5 36.75Z" fill="url(#paint0_linear)"/>
<path d="M28.7123 18.8335C28.7123 24.5647 24.0765 25.5972 22.4525 25.5972H20.4068V29.1707C20.4068 30.457 19.3638 31.5 18.0775 31.5C16.793 31.5 15.75 30.457 15.75 29.1707V15.0202C15.75 13.4907 16.9908 12.25 18.5203 12.25H22.2758C23.8473 12.25 28.7123 12.845 28.7123 18.8335ZM24.2638 18.9245C24.2638 16.5497 22.5715 16.254 21.9205 16.254H20.4085V21.7437H21.9205C22.5715 21.742 24.2638 21.2992 24.2638 18.9245Z" fill="white"/>
<defs>
<linearGradient id="paint0_linear" x1="21" y1="5.25" x2="21" y2="36.75" gradientUnits="userSpaceOnUse">
<stop stop-color="#39B6EB"/>
<stop offset="1" stop-color="#177DA9"/>
</linearGradient>
</defs>
</svg>
